<svg width="384" height="38" viewBox="0 0 384 38" fill="none" xmlns="http://www.w3.org/2000/svg">
<path d="M26.16 22.76C26.28 22.96 26.36 23.08 26.6 23.08C26.84 23.08 26.96 22.92 27.04 22.72C28.12 20.16 28.88 17.04 29.16 14.32C29.16 14.24 29.2 14.2 29.2 14.16C29.2 13.52 28.76 13.28 28.2 13.28H24.84C24.48 13.28 24.12 13.32 23.88 13.64C23.8 13.8 23.76 13.96 23.76 14.2C23.76 14.32 23.76 14.48 23.8 14.6C24.08 17.56 24.92 20.04 26.16 22.76ZM21.56 19.56C21.48 19.36 21.36 19.2 21.16 19.2C21 19.2 20.88 19.32 20.8 19.44C20.52 19.96 19.84 21.32 19.2 21.32C18.48 21.32 16.76 20.04 16.76 19.44C16.76 19.16 17.24 18.44 17.4 18.16C20.08 13.56 22.24 7.56 23 2.24C23.04 1.92 23.08 1.6 23.52 1.6C23.96 1.6 26.04 2.2 26.64 2.36C26.96 2.44 27.4 2.6 27.4 3C27.4 3.24 27.12 3.4 26.92 3.48C26.4 3.76 26.32 4.04 26.08 5.16C25.96 5.84 25.72 6.88 25.28 8.48C25.28 8.6 25.24 8.72 25.24 8.8C25.24 9.32 25.64 9.52 26.12 9.52H30.72C32.12 9.52 33.48 9.44 34.88 9.44C35.88 9.44 35.88 9.92 35.88 11.4C35.88 12.92 35.88 13.36 34.92 13.36C34.2 13.36 33.52 13.32 32.84 13.28C32.8 13.32 32.76 13.32 32.76 13.36C32.76 13.4 32.76 13.44 32.8 13.44C33.24 13.52 34 13.6 34 14.08C34 14.36 33.72 14.52 33.52 14.64C32.88 15.04 32.92 15.2 32.76 16.16C32.2 19.96 31.08 23.08 29.4 26.52C29.24 26.8 29.16 27 29.16 27.32C29.16 27.68 29.28 27.96 29.52 28.2C31.12 30.24 33.44 32.44 35.56 33.88C35.84 34.04 36.12 34.2 36.12 34.56C36.12 35.4 34.44 37.2 33.48 37.2C32.28 37.2 28.28 32.72 27.4 31.68C27.2 31.48 27.04 31.32 26.72 31.32C26.44 31.32 26.28 31.48 26.08 31.68C24.68 33.52 22.76 35.48 20.84 36.8C20.52 37 19.92 37.44 19.52 37.44C18.76 37.44 17.28 35.64 17.28 34.96C17.28 34.56 17.64 34.36 17.92 34.16C20.32 32.64 22.32 30.64 23.96 28.36C24.2 28.04 24.28 27.84 24.28 27.44C24.28 27.12 24.2 26.88 24.04 26.6C22.8 24.16 22.2 22.2 21.56 19.56ZM6.44 26.32V26.48C6.44 27.04 6.84 27.4 7.4 27.4H11.72C12.28 27.4 12.68 27.04 12.68 26.48V26.32C12.68 25.76 12.28 25.4 11.72 25.4H7.4C6.84 25.4 6.44 25.76 6.44 26.32ZM7.4 22.6H11.72C12.28 22.6 12.68 22.2 12.68 21.64V21.56C12.68 21 12.28 20.6 11.72 20.6H7.4C6.84 20.6 6.44 21 6.44 21.56V21.64C6.44 22.2 6.84 22.6 7.4 22.6ZM12.68 32.2V31.32C12.68 30.52 12.32 30.2 11.56 30.2H7.56C6.76 30.2 6.44 30.52 6.44 31.32V33.08C6.44 34.24 6.52 35.4 6.52 36.52C6.52 37.44 6.2 37.48 4.52 37.48C2.96 37.48 2.56 37.44 2.56 36.6C2.56 35.44 2.64 34.24 2.64 33.08V21.64C2.64 20.72 2.6 19.8 2.6 19.04C2.6 17.76 3.4 17.56 4.48 17.56C5.4 17.56 6.28 17.6 7.2 17.6H11.84C12.72 17.6 13.6 17.56 14.48 17.56C15.6 17.56 16.44 17.68 16.44 19.04C16.44 19.84 16.4 20.72 16.4 21.6V32.04C16.4 32.64 16.44 33.24 16.44 33.8C16.44 34.88 16.32 35.84 15.4 36.52C14.28 37.4 12.32 37.44 10.92 37.44C9.48 37.44 8.84 37.24 8.84 34.52C8.84 33.88 9 33.6 9.68 33.6C10.28 33.6 10.92 33.64 11.56 33.64C12.72 33.64 12.68 33.16 12.68 32.2ZM8.08 10.48V11.4C8.16 12.08 8.52 12.48 9.2 12.48H9.92C10.64 12.48 10.96 12.08 11.04 11.4V10.48C10.96 9.8 10.64 9.44 9.92 9.36H9.2C8.52 9.44 8.16 9.8 8.08 10.48ZM11.04 4.96C11.04 4.16 11 3.36 10.92 2.56C10.88 2.44 10.88 2.28 10.88 2.16C10.88 1.76 11.16 1.64 11.52 1.64C12.04 1.64 14.12 1.84 14.72 1.88C15.04 1.92 15.64 1.96 15.64 2.36C15.64 2.64 15.36 2.8 15.16 2.92C14.76 3.24 14.72 3.68 14.72 4.52V5.04C14.8 5.76 15.08 6 15.76 6.04C16.16 6.04 16.56 6 17 6C17.92 6 17.88 6.56 17.88 7.72C17.88 8.88 17.92 9.44 17 9.44C16.56 9.44 16.16 9.44 15.76 9.4C15 9.44 14.72 9.76 14.72 10.52V11.36C14.72 12.12 15 12.44 15.76 12.48C16.4 12.44 17.04 12.4 17.68 12.4C18.6 12.4 18.56 12.96 18.56 14.04C18.56 15.24 18.6 15.72 17.64 15.72C16.32 15.72 15.04 15.64 13.76 15.64H5.16C3.84 15.64 2.56 15.72 1.24 15.72C0.28 15.72 0.32 15.2 0.32 14.04C0.32 12.96 0.28 12.4 1.2 12.4C1.92 12.4 2.6 12.44 3.32 12.48C4.08 12.44 4.4 12.16 4.4 11.36V10.52C4.4 9.76 4.08 9.44 3.32 9.4C2.92 9.44 2.56 9.44 2.16 9.44C1.2 9.44 1.24 8.96 1.24 7.72C1.24 6.52 1.2 6 2.16 6C2.52 6 2.92 6.04 3.32 6.04C4.08 6 4.4 5.72 4.4 4.96C4.44 4.16 4.32 3.28 4.24 2.48C4.24 2.36 4.2 2.24 4.2 2.12C4.2 1.68 4.48 1.56 4.88 1.56C5.48 1.56 7.52 1.76 8.24 1.84C8.52 1.88 9.04 1.92 9.04 2.28C9.04 2.56 8.84 2.64 8.56 2.84C8.08 3.2 8.08 3.84 8.08 5.04C8.16 5.8 8.48 6.08 9.2 6.08H9.92C10.72 6.08 11 5.76 11.04 4.96ZM69.64 28C69.64 28.36 69.2 28.4 68.92 28.4C68.76 28.4 68.64 28.36 68.52 28.36C68.2 28.36 67.96 28.64 67.68 28.88C62.52 33.28 56.92 35.96 50.16 36.84C48.56 37.04 45.6 37.36 44.08 37.36C43.4 37.36 43.04 37.16 42.8 36.52C42.56 35.84 42.36 34.92 42.36 34.2C42.36 33.4 42.8 33.4 43.64 33.4H44.6C52.48 33.4 59.52 31.6 65.16 25.72C65.36 25.52 65.56 25.28 65.84 25.28C66.2 25.28 67.12 25.92 67.72 26.32C67.88 26.44 68.04 26.56 68.12 26.6C68.76 27.04 69.64 27.56 69.64 28ZM75.4 26.96C75.4 27.72 73.6 29.36 72.88 29.36C72.48 29.36 72 28.76 71.76 28.48C69.64 26.04 67.4 24.08 64.72 22.28C64.48 22.12 64.04 21.84 64.04 21.48C64.04 20.96 65.88 19.28 66.4 19.28C67.72 19.28 75.4 25.92 75.4 26.96ZM52.76 21.48C52.76 21.8 52.4 21.92 52.12 21.96C51.6 22.04 51.48 22.16 51.08 22.64C49 25.32 47.12 27.2 44.4 29.24C44 29.52 43.32 30.04 42.8 30.04C42.12 30.04 40.28 28.36 40.28 27.76C40.28 27.36 40.84 27.04 41.12 26.84C43.6 25.12 46.68 22.52 48.16 19.88C48.28 19.6 48.48 19.2 48.84 19.2C49.12 19.2 50.52 19.96 51.44 20.44C51.76 20.64 52 20.76 52.16 20.84C52.44 20.96 52.76 21.12 52.76 21.48ZM54.76 18.96H46.2C44.52 18.96 42.88 19.04 41.24 19.04C40.28 19.04 40.32 18.56 40.32 17.12C40.32 15.64 40.28 15.16 41.24 15.16C41.76 15.16 44.24 15.24 44.88 15.24C45.68 15.2 45.96 14.92 45.96 14.16V7C45.96 6.2 45.96 5.36 45.84 4.64C45.8 4.52 45.8 4.36 45.8 4.28C45.8 3.8 46.08 3.72 46.48 3.72C47.04 3.72 49.2 3.92 49.84 4C50.28 4.04 50.92 4.08 50.92 4.56C50.92 4.8 50.72 4.92 50.4 5.12C50 5.44 49.96 6 49.96 7.12V14.16C49.96 14.92 50.28 15.24 51.08 15.24H54.68C55.48 15.24 55.8 14.92 55.8 14.16V5.52C55.8 4.56 55.72 3.52 55.64 2.6C55.64 2.48 55.6 2.36 55.6 2.24C55.6 1.76 55.96 1.68 56.36 1.68C56.88 1.68 59.32 1.92 59.96 2C60.32 2.04 61.04 2.04 61.04 2.52C61.04 2.8 60.84 2.88 60.52 3.12C60.04 3.52 60.04 4.08 60.08 5.56C60.12 6.32 60.4 6.64 61.16 6.64H66.36C67.8 6.64 69.2 6.52 70.64 6.52C71.6 6.52 71.56 7.04 71.56 8.52C71.56 9.96 71.6 10.44 70.64 10.44C69.24 10.44 67.8 10.36 66.36 10.36H61.16C60.4 10.36 60.08 10.68 60.08 11.48V14.16C60.08 14.92 60.4 15.24 61.16 15.24H69.72C71.36 15.24 73 15.16 74.64 15.16C75.6 15.16 75.6 15.6 75.6 17.12C75.6 18.64 75.6 19.04 74.64 19.04C73 19.04 71.36 18.96 69.72 18.96H60.8C60.72 18.96 60.56 19 60.56 19.12C60.56 19.24 60.68 19.24 60.76 19.28C60.88 19.36 61 19.48 61 19.6C61 19.84 60.72 20 60.48 20.16C59.84 20.52 59.88 20.96 59.88 22.32V24.72C59.88 25.6 60 26.48 60 27.36C60 28.84 59.48 29.8 58.08 30.36C56.68 30.92 54.84 31.12 53.36 31.12C52.52 31.12 52.04 31.12 51.72 30.44C51.4 29.8 51.24 28.88 51.24 28.2C51.24 27.56 51.28 27.08 52 27.08C52.24 27.08 53 27.12 53.56 27.12C55.72 27.12 55.68 26.56 55.68 24.68V22.32C55.68 20.08 55.72 19.08 54.76 18.96ZM95.76 19.88V14.28C95.76 13.56 95.36 13.24 94.68 13.16H88.4C87.68 13.24 87.36 13.56 87.28 14.28V19.88C87.36 20.56 87.68 20.92 88.4 21H94.68C95.36 20.92 95.76 20.56 95.76 19.88ZM108.68 19.88V14.28C108.6 13.56 108.24 13.24 107.56 13.16H101.16C100.48 13.24 100.12 13.56 100.04 14.28V19.88C100.12 20.56 100.48 20.92 101.16 21H107.56C108.24 20.92 108.6 20.56 108.68 19.88ZM107.68 24.96H101.16C100.4 24.96 100.04 25.28 100.04 26.08V30.2C100.04 32.24 100.16 34.28 100.16 36.32C100.16 37.56 99.68 37.6 97.92 37.6C96.12 37.6 95.68 37.56 95.68 36.28C95.68 34.28 95.76 32.24 95.76 30.2V26.08C95.76 25.28 95.44 24.96 94.68 24.96H88.28C87.56 24.96 87.36 25.28 87.36 25.88V26.32C87.36 27.28 86.88 27.24 85.2 27.24C83.6 27.24 83.04 27.28 83.04 26.32C83.04 25.32 83.12 24.28 83.12 23.24V13.4C83.12 12.56 83.08 11.72 83.08 10.84C83.08 9.28 84.28 9.12 85.56 9.12C86.76 9.12 88 9.16 89.2 9.16H94.68C95.44 9.16 95.76 8.84 95.76 8.04V5.6C95.76 4.6 95.76 3.56 95.64 2.76C95.6 2.64 95.6 2.52 95.6 2.36C95.6 1.88 95.96 1.84 96.36 1.84C97.12 1.84 99.08 1.96 99.92 2C100.28 2.04 100.96 2.04 100.96 2.52C100.96 2.8 100.76 2.92 100.48 3.12C100.08 3.44 100.04 4.36 100.04 5.6V8.04C100.04 8.84 100.4 9.16 101.16 9.16H106.76C107.96 9.16 109.16 9.12 110.36 9.12C111.64 9.12 112.88 9.28 112.88 10.84C112.88 11.72 112.84 12.56 112.84 13.4V23.32C112.84 24.36 112.92 25.4 112.92 26.44C112.92 27.36 112.4 27.36 110.76 27.36C109.12 27.36 108.6 27.4 108.6 26.44V25.88C108.6 25.24 108.32 24.96 107.68 24.96ZM135.32 10.92C135 10.92 134.28 11.2 133.96 11.36C129.4 13.52 126.76 17.8 126.76 22.88C126.76 24.36 127.28 28.08 129.32 28.08C131.32 28.08 133.56 23.52 134.68 19.44C135.2 17.52 135.96 13.56 135.96 11.64C135.96 11.24 135.76 10.92 135.32 10.92ZM139.16 6.24C143.08 6.24 146.68 7.4 149.52 10.2C152.2 12.88 153.56 16.24 153.56 20.04C153.56 25.6 150.64 30.36 145.76 32.96C144.84 33.44 142.36 34.56 141.4 34.56C140.36 34.56 138.72 32.08 138.72 31.2C138.72 30.8 139.32 30.72 139.72 30.64C144.96 29.4 149.08 25.96 149.08 20.24C149.08 15.96 146.84 12.12 142.68 10.68C142.32 10.56 141.52 10.32 141.16 10.32C140.24 10.32 140.24 11.2 140.2 11.88C139.76 17.72 138.36 24.84 134.52 29.44C133.2 31.04 131.44 32.52 129.24 32.52C126.8 32.52 124.88 30.76 123.8 28.72C122.92 27.08 122.56 24.92 122.56 23.04C122.56 13.68 129.72 6.24 139.16 6.24ZM335.2 11.28C335.2 12.24 332.88 12.44 332.6 12.44C332.08 12.44 331.76 12.24 331.68 11.72C331.32 9.88 331.24 9.72 330.72 8C330.68 7.88 330.68 7.84 330.68 7.72C330.68 7.28 330.96 7.04 331.92 6.84C332.16 6.8 333.12 6.6 333.36 6.6C334.16 6.6 334.24 7.2 334.68 8.96C334.8 9.4 335.2 10.92 335.2 11.28ZM341.72 1.48C342.12 1.48 342.56 2.2 343.48 3.6C343.68 3.88 344.12 4.56 344.12 4.88C344.12 5.12 343.92 5.2 343.72 5.2C343.56 5.2 343.36 5.12 343.24 5.04C343.08 4.96 342.92 4.88 342.72 4.88C342.52 4.88 342.32 4.96 342.12 5C337.12 6.16 329.88 6.72 324.72 6.72C324.16 6.72 323.72 6.68 323.44 6.12C323.2 5.56 322.96 4.68 322.96 4.08C322.96 3.2 323.68 3.28 324.68 3.28H325.52C330.6 3.28 336.2 2.84 341.08 1.6C341.32 1.56 341.52 1.48 341.72 1.48ZM317.48 10.88V8.8C317.4 8.12 317.04 7.76 316.36 7.68H315.72C315.04 7.76 314.68 8.12 314.6 8.8V10.88C314.68 11.56 315.04 11.92 315.72 12H316.36C317.04 11.92 317.4 11.56 317.48 10.88ZM317.48 18.6V16.6C317.4 15.92 317.04 15.56 316.36 15.48H315.72C315.04 15.56 314.68 15.92 314.6 16.6V18.6C314.68 19.28 315.04 19.64 315.72 19.72H316.36C317.04 19.64 317.4 19.28 317.48 18.6ZM325.76 25.2C325.96 25.32 326.4 25.64 326.6 25.8C326.8 25.96 326.96 26.04 327.24 26.04C327.56 26.04 327.76 25.84 327.92 25.56C328.12 25.16 328.68 24.12 328.68 23.68C328.68 23.36 328.28 23.32 327.72 23.32H327C326.44 23.32 326.2 23.44 325.88 23.96C325.8 24.12 325.68 24.32 325.56 24.52C325.52 24.6 325.44 24.68 325.44 24.8C325.44 24.96 325.6 25.12 325.76 25.2ZM337.96 27.6V25.68C337.96 25.12 337.56 24.72 337 24.72H336.8C336.24 24.72 335.84 25.12 335.84 25.68V27.6C335.84 28.2 336.24 28.56 336.8 28.56H337C337.56 28.56 337.96 28.2 337.96 27.6ZM317.48 26.88V24.28C317.4 23.6 317.04 23.28 316.36 23.2H315.72C315.04 23.2 314.68 23.6 314.6 24.28V26.88C314.68 27.56 315.04 27.92 315.72 28H316.36C317.04 27.92 317.4 27.56 317.48 26.88ZM328.16 19.32C328.12 19.4 328.08 19.52 328.08 19.64C328.08 20.08 328.44 20.24 328.84 20.28C329.48 20.28 330.16 20.24 330.84 20.24C332.2 20.24 332.84 21.56 332.84 22.24C332.84 23.68 330.72 27.84 329.92 29.16C328.2 31.96 325.56 35.28 322.84 37.12C322.52 37.36 322.16 37.6 321.76 37.6C321.04 37.6 319.4 36.12 319.4 35.44C319.4 35.04 320.04 34.68 320.36 34.44C322.4 32.96 323.72 31.72 325.24 29.68C325.36 29.52 325.44 29.4 325.44 29.2C325.44 28.96 325.28 28.8 325.12 28.68C324.8 28.36 324.44 28.08 324.08 27.8C323.96 27.72 323.84 27.64 323.68 27.64C323.56 27.64 323.44 27.72 323.36 27.8C323.16 28 323 28.2 322.68 28.2C322.28 28.2 321.68 27.6 321.4 27.32C321.32 27.24 321.24 27.2 321.12 27.2C320.92 27.2 320.84 27.4 320.8 27.6V28.6C320.8 29.8 320.88 31 320.88 32.16C320.88 33 320.44 33 319.12 33C317.8 33 317.52 32.96 317.44 32.44C317.32 32 317.16 31.72 316.64 31.72H315.68C314.88 31.72 314.6 32.04 314.6 32.84V33.2C314.6 34.2 314.16 34.12 312.96 34.12C311.4 34.12 311.04 34.2 311.04 33.12C311.04 31.56 311.12 30 311.12 28.48V9.8C311.12 8.6 311.04 7.4 311.04 6.16C311.04 4.92 311.16 3.92 312.68 3.92C313.32 3.92 314 3.96 314.68 3.96H317.24C317.92 3.96 318.56 3.92 319.24 3.92C320.64 3.92 320.88 4.76 320.88 6C320.88 7.28 320.8 8.52 320.8 9.8V24.56C320.84 24.72 320.92 24.96 321.16 24.96C321.28 24.96 321.36 24.88 321.44 24.8C322.56 23.08 323.52 21.6 324.32 19.76C324.36 19.64 324.4 19.56 324.4 19.44C324.4 19 324.04 18.84 323.68 18.8C322.64 18.8 322 18.8 322 17.92C322 17.56 322.08 17.16 322.08 16.76V15.6C322.08 14.88 322.04 14.52 322.04 14.16C322.04 12.8 323.04 12.6 324.12 12.6H324.44C324.88 12.6 325.16 12.4 325.16 11.92C325.16 11.84 325.16 11.76 325.12 11.64C324.88 10.84 324.32 9.68 323.96 8.92C323.92 8.76 323.8 8.52 323.8 8.36C323.8 7.64 326.04 7.08 326.44 7.08C327.08 7.08 327.24 7.64 328 9.52C328.2 9.96 328.76 11.32 328.76 11.76C328.76 12.12 328.52 12.28 328.12 12.44C328.04 12.48 327.92 12.52 327.92 12.56C327.92 12.64 328 12.64 328.04 12.64H336.28C337.08 12.64 337.32 12.32 337.68 11.68C338.64 9.96 339.2 8.84 339.8 6.96C340 6.36 340.12 5.92 340.56 5.92C341.04 5.92 344.48 7.24 344.48 7.8C344.48 8.12 344.16 8.2 343.92 8.24C343.36 8.32 343.32 8.4 342.6 9.76C342.32 10.24 342 10.88 341.52 11.72C341.48 11.84 341.44 11.92 341.44 12.04C341.44 12.44 341.72 12.6 342.08 12.6C343.16 12.6 344.28 12.72 344.28 14.12C344.28 14.48 344.24 14.96 344.24 15.64V16.72C344.24 17.16 344.28 17.8 344.28 18C344.28 18.88 343.64 18.84 342.36 18.84H342.12C341.84 18.88 341.68 18.92 341.6 19.24C341.56 19.64 341.56 20.04 341.56 20.44C341.6 21.08 341.8 21.32 342.48 21.36C342.96 21.32 343.6 21.28 344.08 21.28C344.76 21.28 344.76 21.72 344.76 23.04C344.76 24.32 344.8 24.8 344.08 24.8C343.56 24.8 343.08 24.76 342.6 24.72C341.84 24.76 341.56 25.08 341.56 25.84V27.44C341.56 28.24 341.84 28.52 342.64 28.56C343.08 28.56 344.08 28.48 344.48 28.48C345.32 28.48 345.28 29.04 345.28 30.2C345.28 31.4 345.32 31.96 344.48 31.92C344.48 31.92 342.68 31.84 342.6 31.84C341.84 31.88 341.56 32.2 341.56 32.96C341.52 34.12 341.64 35.32 341.64 36.48C341.64 37.56 341.2 37.56 339.76 37.56C338.28 37.56 337.84 37.56 337.84 36.52C337.84 35.32 337.96 34.12 337.96 32.96C337.96 32.16 337.6 31.84 336.84 31.84H334.32C333.4 31.84 332.28 31.92 331.56 31.92C330.72 31.92 330.76 31.28 330.76 30.2C330.76 29.08 330.72 28.48 331.56 28.48C331.84 28.48 332.08 28.52 332.36 28.52C333 28.52 333.28 28.24 333.28 27.6V25.96C333.28 25 333.2 24.04 333.2 23.08C333.2 21.8 333.48 21.32 334.76 21.32C335.44 21.32 336.16 21.36 336.84 21.36C337.64 21.32 337.88 21.04 337.96 20.28C337.92 19.6 337.92 18.92 337.8 18.24V17.88C337.8 17.48 338.12 17.44 338.44 17.44C338.96 17.44 339.48 17.52 340 17.52C340.56 17.56 340.6 17.16 340.64 16.92V16.84C340.64 16.36 340.44 16.24 340 16.2H326.28C326.12 16.2 325.96 16.24 325.96 16.44C325.96 16.68 326.32 16.76 326.48 16.76C326.84 16.84 327.2 16.92 327.48 17C329 17.32 329.52 17.44 329.52 17.8C329.52 18.08 329.24 18.24 329 18.28C328.48 18.48 328.52 18.48 328.16 19.32ZM373.44 11.8V12.12C373.44 12.72 373.8 13.08 374.4 13.08H379.04C379.6 13.08 379.96 12.72 379.96 12.12V11.8C379.96 11.24 379.6 10.84 379.04 10.84H374.4C373.8 10.84 373.44 11.24 373.44 11.8ZM379.04 6.04H374.4C373.8 6.04 373.44 6.44 373.44 7V7.32C373.44 7.88 373.8 8.24 374.4 8.24H379.04C379.6 8.24 379.96 7.88 379.96 7.32V7C379.96 6.44 379.6 6.04 379.04 6.04ZM378.88 16.08H374.56C373.56 16.08 372.56 16.16 371.56 16.16C370.08 16.16 369.4 15.76 369.4 14.16C369.4 13.04 369.48 11.92 369.48 10.8V8.48C369.48 7.32 369.4 6.16 369.4 5C369.4 3.4 369.92 2.88 371.52 2.88C372.56 2.88 373.56 2.96 374.56 2.96H378.84C379.84 2.96 380.84 2.88 381.84 2.88C383.36 2.88 384 3.28 384 4.92C384 6.16 383.92 7.4 383.92 8.64V29.52C383.92 30.64 384 31.72 384 32.84C384 36.68 381.8 37.44 378.36 37.44C376.8 37.44 375.92 37.44 375.92 34.4C375.92 33.76 376.04 33.36 376.72 33.36C377.08 33.36 377.96 33.48 378.68 33.48C379.84 33.48 379.96 32.8 379.96 31.96V17.2C379.96 16.4 379.64 16.08 378.88 16.08ZM355.08 11.72V12.08C355.08 12.64 355.48 13.04 356.04 13.04H360.84C361.4 13.04 361.8 12.64 361.8 12.08V11.72C361.8 11.16 361.4 10.76 360.84 10.76H356.04C355.48 10.76 355.08 11.16 355.08 11.72ZM360.84 6H356.04C355.48 6 355.08 6.4 355.08 6.96V7.24C355.08 7.8 355.48 8.2 356.04 8.2H360.84C361.4 8.2 361.8 7.8 361.8 7.24V6.96C361.8 6.4 361.4 6 360.84 6ZM355.08 17.12V30.28C355.08 32.24 355.2 34.2 355.2 36.2C355.2 37.44 354.8 37.48 353.12 37.48C351.4 37.48 351.04 37.44 351.04 36.2C351.04 34.24 351.12 32.28 351.12 30.28V8.6C351.12 7.36 351.08 6.12 351.08 4.88C351.08 3.32 351.68 2.84 353.2 2.84C354.2 2.84 355.2 2.92 356.24 2.92H360.64C361.64 2.92 362.64 2.84 363.68 2.84C365.16 2.84 365.8 3.28 365.8 4.84C365.8 6.04 365.76 7.24 365.76 8.44V10.72C365.76 11.84 365.8 12.96 365.8 14.12C365.8 15.68 365.16 16.08 363.68 16.08C362.68 16.08 361.64 16.04 360.64 16.04H356.2C355.4 16.04 355.08 16.36 355.08 17.12ZM364.12 28.24V28.36C364.12 28.92 364.52 29.32 365.08 29.32H369.72C370.28 29.32 370.64 28.92 370.64 28.36V28.24C370.64 27.68 370.28 27.32 369.72 27.32H365.08C364.52 27.32 364.12 27.68 364.12 28.24ZM364.88 24.64H369.88C370.36 24.64 370.64 24.32 370.64 23.88V23.44C370.64 22.96 370.36 22.68 369.88 22.68H364.88C364.44 22.72 364.12 22.96 364.12 23.44V23.88C364.16 24.32 364.44 24.6 364.88 24.64ZM369.88 32.48H364.92C364.44 32.48 364.2 32.68 364.2 33.2C364.24 34.44 364.04 34.44 362.24 34.44C360.76 34.44 360.28 34.44 360.28 33.56C360.28 32.56 360.36 31.52 360.36 30.52V23.44C360.36 22.64 360.32 21.84 360.32 21.04C360.32 19.68 361.16 19.44 362.32 19.44C363.16 19.44 364 19.48 364.88 19.48H369.92C370.76 19.48 371.6 19.44 372.44 19.44C373.6 19.44 374.48 19.68 374.48 21.04C374.48 21.84 374.44 22.64 374.44 23.44V30.52C374.44 31.52 374.52 32.56 374.52 33.56C374.52 34.44 374.04 34.44 372.56 34.44C371.04 34.44 370.6 34.44 370.6 33.6V33.2C370.6 32.68 370.36 32.48 369.88 32.48Z" fill="white"/>
<path d="M184.76 13.68H172.64C171.32 13.68 170 13.76 168.68 13.76C167.76 13.76 167.8 13.2 167.8 12.2C167.8 11.12 167.8 10.6 168.68 10.6C170 10.6 171.32 10.68 172.64 10.68H184.76C186.08 10.68 187.4 10.6 188.72 10.6C189.64 10.6 189.6 11.12 189.6 12.2C189.6 13.32 189.6 13.76 188.72 13.76C187.4 13.76 186.08 13.68 184.76 13.68ZM185.04 19.24H168.8C167.16 19.24 165.52 19.36 163.88 19.36C163 19.36 163 18.92 163 17.56C163 16.12 163.04 15.76 163.92 15.76C165.56 15.76 167.16 15.88 168.8 15.88H185.2C186.16 15.88 187.12 15.8 188.04 15.8C189.52 15.8 190.48 15.92 190.48 17.64C190.48 18.88 190.24 21.84 190.24 24.24C190.24 25.48 190.48 33.2 191.88 33.2C192.88 33.2 193.24 29.12 193.32 28.32C193.4 27.6 193.52 27.36 194.28 27.36C195.16 27.36 196.52 27.76 196.52 28.8C196.52 30.08 196.08 32.48 195.68 33.72C195.04 35.68 193.88 37.56 191.56 37.56C189.72 37.56 188.48 36.48 187.76 34.84C186.36 31.56 186.08 26.24 186.08 22.68C186.08 21.88 186.08 21.08 186.12 20.32C186.12 19.56 185.8 19.24 185.04 19.24ZM188.56 8.64H170.16C169.32 8.64 169 8.8 168.44 9.44C167.64 10.4 163.8 14.88 162.72 14.88C162.16 14.88 160.16 13.68 160.16 12.88C160.16 12.48 160.72 12.12 161.08 11.8C164.2 9.2 167.28 5.44 168.92 1.72C169.04 1.48 169.16 1.28 169.44 1.28C169.84 1.28 171.8 1.88 172.28 2.04C173.12 2.28 173.8 2.44 173.8 2.84C173.8 3.12 173.36 3.28 173.12 3.32C172.52 3.48 172.4 3.64 172.16 4.08C172.08 4.2 172 4.32 171.92 4.48C171.84 4.64 171.8 4.72 171.8 4.88C171.8 5.28 172.16 5.36 172.44 5.4H188.56C190.08 5.4 191.6 5.32 193.12 5.32C194.08 5.32 194.08 5.68 194.08 7.04C194.08 8.36 194.08 8.72 193.12 8.72C191.6 8.72 190.08 8.64 188.56 8.64ZM176.8 26.68C176.68 26.88 176.56 27.08 176.56 27.36C176.56 27.72 176.76 27.92 177 28.16C178.44 29.24 179.84 30.36 181.12 31.6C181.4 31.88 181.8 32.2 181.8 32.6C181.8 33.2 180.8 35.36 179.64 35.36C179.16 35.36 178.8 34.96 178.48 34.68C177.12 33.4 175.84 32.12 174.4 30.96C174.16 30.8 173.96 30.64 173.64 30.64C173.32 30.64 173.08 30.84 172.84 31C170.44 33.16 167.76 34.96 164.92 36.48C164.52 36.72 163.68 37.2 163.24 37.2C162.44 37.2 161 35.04 161 34.36C161 33.96 161.48 33.72 161.96 33.48C162.08 33.44 162.16 33.36 162.28 33.32C164.84 32.12 167.28 30.52 169.48 28.72C169.64 28.56 169.76 28.36 169.76 28.12C169.76 27.8 169.56 27.64 169.36 27.48C167.76 26.6 166.92 26.12 165.2 25.4C164.72 25.2 163.92 24.96 163.92 24.4C163.92 23.72 165.4 21.92 166.08 21.92C167 21.92 171 24.2 172 24.8C172.24 24.92 172.4 25 172.68 25C173.04 25 173.32 24.76 173.52 24.52C174.36 23.44 175.12 22.28 175.72 21.04C175.84 20.72 176.12 20.04 176.52 20.04C176.88 20.04 178.12 20.68 178.84 21.08C179.04 21.2 179.2 21.28 179.28 21.32C179.68 21.52 180.56 21.92 180.56 22.32C180.56 22.64 180.24 22.72 180 22.76C179.36 22.8 179.36 22.84 178.88 23.64C178.24 24.76 177.6 25.68 176.8 26.68ZM214.04 28.52C212.8 28.52 209.68 28.64 209.68 30.36C209.68 31.72 211.48 31.96 212.52 31.96C214.36 31.96 215.92 31.44 215.92 29.28C215.92 28.52 214.96 28.52 214.04 28.52ZM215.4 3.44C216 3.44 217.88 3.72 218.6 3.8C219.64 3.92 220.2 4 220.2 4.44C220.2 5.2 219.52 4.52 219.44 7.76C219.44 8.32 219.56 8.92 220.28 8.92C220.44 8.92 222 8.68 222.28 8.64C223.56 8.48 225.4 8.04 226.64 7.72C227 7.64 227.8 7.4 228.16 7.4C229.04 7.4 229.16 10 229.16 10.68C229.16 11.48 228.8 11.56 228.04 11.72C225.96 12.16 223.48 12.52 221.36 12.76C220.52 12.88 219.56 12.84 219.56 13.96C219.56 14.44 219.64 15.56 219.76 16.08C219.84 16.32 219.92 16.72 220.4 16.72C221.36 16.72 224.52 16.04 225.52 15.76C225.76 15.68 226.04 15.6 226.28 15.6C226.84 15.6 226.96 16.48 226.96 18C226.96 19.32 226.92 19.72 226.2 19.88C225.12 20.16 223.2 20.44 222.08 20.56C220.56 20.72 219.76 20.72 219.76 21.84C219.76 26 219.92 25.68 221.64 26.24C222.96 26.68 228.24 28.92 228.24 30.36C228.24 31.24 226.92 33.28 225.96 33.28C225.52 33.28 225.04 32.92 224.72 32.64C224 32.08 221.36 30.2 220.56 30.2C219.92 30.2 219.84 30.8 219.76 31.08C218.92 34.52 215.76 35.52 212.52 35.52C209.32 35.52 205.84 34.04 205.84 30.32C205.84 26.28 210.2 25 213.52 25C214 25 214.92 25.08 215.16 25.08C215.84 25.08 215.84 24.36 215.84 23.96C215.84 22.68 215.92 21.2 214.92 21.2C214.08 21.2 211.84 21.36 210.12 21.36C208.48 21.36 207.72 21.4 207.4 20.68C207.08 20 206.88 18.64 206.88 17.88C206.88 17.4 207 17.04 207.56 17.04C208.04 17.04 210.28 17.24 211.8 17.24H213.6C215.08 17.24 215.64 17.12 215.64 16.24C215.64 15.08 215.6 13.44 214.56 13.44C213.16 13.44 209.96 13.64 207.8 13.64H206.6C205.52 13.64 204.52 13.6 204.28 13.28C203.88 12.68 203.84 11.08 203.84 10.36C203.84 9.8 203.88 9.24 204.56 9.24C205.4 9.24 208.76 9.56 210.72 9.56C214.24 9.56 215.24 9.64 215.24 8.56C215.24 7.92 215 5.24 214.88 4.56C214.84 4.36 214.8 4.12 214.8 3.92C214.8 3.52 215.04 3.44 215.4 3.44ZM250 19.48C248.44 19.48 248.04 21.68 248.04 22.88C248.04 24.08 248.32 26.28 249.92 26.28C251.52 26.28 252 24.24 252 23C252 21.76 251.64 19.48 250 19.48ZM250.2 2.52C250.52 2.52 252.2 2.72 252.68 2.76C252.84 2.8 253.08 2.8 253.28 2.84C254.24 2.96 255.44 3.04 255.44 3.4C255.44 3.6 255.32 3.72 255.2 3.84C254.96 4.04 254.64 4.36 254.6 5.52C254.56 6.4 254.56 7.24 254.56 8.08C254.56 8.84 255 9.24 255.72 9.24C256.04 9.24 257.56 9.12 258.04 9.12C259.96 9.04 264.28 8.8 265.96 8.8C266.6 8.8 266.92 9 266.92 10.84C266.92 13.28 266.44 13.28 266.04 13.28C265.48 13.28 262.48 13.04 260.24 13.04C259.52 13.04 255.76 13.08 255.36 13.24C254.8 13.4 254.6 14 254.6 14.52V15.92C254.6 17.04 254.64 17.36 255 18C255.88 19.68 256.2 21.76 256.2 23.6C256.2 30.04 251.92 37.24 250.2 37.24C249.68 37.24 246.48 36.2 246.48 35.48C246.48 35.16 247.12 34.6 247.36 34.36C248.88 32.96 249.28 32.2 250.28 30.48C250.36 30.28 250.48 30.12 250.48 29.88C250.48 29.8 250.4 29.6 250.16 29.6C250.08 29.6 249.96 29.6 249.88 29.64C249.6 29.72 249.24 29.84 248.96 29.84C245.48 29.84 244.2 26.08 244.2 23.16C244.2 19.48 245.8 15.96 249.84 15.6C250.12 15.56 250.32 15.4 250.32 15.16C250.32 13.6 250 13.44 249.56 13.44C249.28 13.44 248.84 13.52 248.52 13.56C245.6 13.84 240.56 14.28 237.8 14.84C237.6 14.88 237.36 14.92 237.2 14.92C236.56 14.92 236.48 14.36 236.36 13.84C236.24 13.16 236.04 11.64 236.04 10.96C236.04 10.16 236.44 10.24 238.4 10.16C239.48 10.12 248.88 9.6 249.24 9.52C249.84 9.36 250.12 8.88 250.12 8.28C250.12 7.04 249.96 4.56 249.68 3.32V3C249.68 2.68 249.88 2.52 250.2 2.52ZM266.32 0.479999C266.76 0.479999 270.08 3.96 270.08 4.44C270.08 5.04 268.64 6.24 268.12 6.24C267.84 6.24 267.24 5.4 267 5.12C266.28 4.28 265.52 3.44 264.76 2.64C264.6 2.52 264.36 2.28 264.36 2.08C264.36 1.64 265.88 0.479999 266.32 0.479999ZM260.84 1.84C261.24 1.84 264.56 5.28 264.56 5.8C264.56 6.36 263.16 7.6 262.64 7.6C262.44 7.6 262.24 7.36 262.12 7.2C261.04 5.92 260.4 5.2 259.24 4C259.12 3.88 258.88 3.68 258.88 3.48C258.88 3 260.36 1.84 260.84 1.84ZM292.56 11.56C292.56 10.8 294.16 9.04 294.96 9.04C295.84 9.04 299.2 11.56 301.12 15.24C302.24 17.36 303.48 21.16 303.48 23.56C303.48 24.32 303.08 24.52 302.4 24.72C301.76 24.92 300.84 25.08 300.16 25.08C298.88 25.08 298.92 24.52 298.84 23.56C298.36 18.88 296.72 15.08 292.92 12.16C292.68 12 292.56 11.84 292.56 11.56ZM274.52 8.96C275.04 8.96 278 9.72 278.68 9.84C279 9.92 279.56 10 279.56 10.4C279.56 10.64 279.4 10.72 279.16 10.92C278.6 11.36 278.56 12.16 278.44 12.84C278.24 14.24 278.12 15.64 278.12 17.08C278.12 19.76 278.36 22.92 279.4 25.44C279.88 26.56 281.2 28.92 282.6 28.92C283.72 28.92 284.88 27.16 285.36 26.28C285.6 25.88 285.92 25.28 286.44 25.28C287.28 25.28 289.32 26.92 289.32 27.64C289.32 28.4 287.52 30.48 286.96 31.12C285.8 32.44 284.56 33.64 282.68 33.64C279.72 33.64 277.4 30.96 276.08 28.52C274.08 24.76 273.76 19.72 273.76 15.48C273.76 14.84 273.88 9.76 273.96 9.4C274 9.08 274.24 8.96 274.52 8.96Z" fill="#6768AE"/>
</svg>
