<svg width="170" height="64" viewBox="0 0 170 64" fill="none" xmlns="http://www.w3.org/2000/svg">
<path fill-rule="evenodd" clip-rule="evenodd" d="M27 1C12.6406 1 1 12.6406 1 27C1 41.3594 12.6406 53 27 53H70.1453C69.2249 55.924 67.8922 59.1887 66 62.5C70.804 62.0425 75.4009 57.7472 78.9863 53H143C157.359 53 169 41.3594 169 27C169 12.6406 157.359 1 143 1H27Z" fill="#F18B1F"/>
<path d="M70.1453 53L71.0991 53.3002L71.5084 52H70.1453V53ZM66 62.5L65.1318 62.0039L64.1749 63.6783L66.0948 63.4955L66 62.5ZM78.9863 53V52H78.4884L78.1883 52.3973L78.9863 53ZM2 27C2 13.1929 13.1929 2 27 2V0C12.0883 0 0 12.0883 0 27H2ZM27 52C13.1929 52 2 40.8071 2 27H0C0 41.9117 12.0883 54 27 54V52ZM70.1453 52H27V54H70.1453V52ZM69.1914 52.6998C68.2897 55.5644 66.9842 58.7621 65.1318 62.0039L66.8682 62.9961C68.8002 59.6153 70.1601 56.2837 71.0991 53.3002L69.1914 52.6998ZM66.0948 63.4955C68.7569 63.242 71.2854 61.9358 73.5674 60.1454C75.8554 58.3503 77.9598 56.0184 79.7843 53.6027L78.1883 52.3973C76.4274 54.7288 74.4407 56.9182 72.3329 58.5719C70.2191 60.2303 68.0471 61.3005 65.9052 61.5045L66.0948 63.4955ZM143 52H78.9863V54H143V52ZM168 27C168 40.8071 156.807 52 143 52V54C157.912 54 170 41.9117 170 27H168ZM143 2C156.807 2 168 13.1929 168 27H170C170 12.0883 157.912 0 143 0V2ZM27 2H143V0H27V2Z" fill="black"/>
</svg>
