<svg width="268" height="173" viewBox="0 0 268 173" fill="none" xmlns="http://www.w3.org/2000/svg">
<path d="M120.305 134.044L122.271 133.674C122.286 133.756 122.338 133.825 122.41 133.861C122.412 133.862 122.413 133.863 122.414 133.864L133.721 139.262L136.367 140.525L134.226 142.527L114.317 161.145L108.99 166.126L111.031 159.124L115.873 142.506L115.874 142.506C115.906 142.393 115.849 142.272 115.748 142.224C115.748 142.224 115.748 142.224 115.747 142.224L100.562 135.19L98.3787 134.179L99.7716 132.218L106.245 123.101C106.245 123.101 106.245 123.101 106.245 123.101C106.302 123.021 106.304 122.93 106.269 122.859L106.265 122.852L106.262 122.845C106.232 122.783 106.154 122.722 106.052 122.718L106.01 122.716L105.968 122.712L27.0396 115.817L25.7823 115.708L25.3403 114.525L2.6639 53.8718L2.28188 52.85L2.93413 51.9756L39.131 3.45019L39.7511 2.619L40.7877 2.64674L223.955 7.54884L224.909 7.57437L225.489 8.33183L264.263 58.9444L265.011 59.9211L264.477 61.0293L234.648 122.895L234.1 124.03L232.84 124.026L131.793 123.738L131.757 123.737L131.721 123.736C131.664 123.734 131.593 123.755 131.529 123.819C131.528 123.82 131.526 123.822 131.525 123.823L122.34 133.475C122.34 133.475 122.339 133.476 122.339 133.476C122.275 133.545 122.261 133.623 122.271 133.676L120.305 134.044ZM120.305 134.044C120.438 134.751 120.897 135.348 121.537 135.661L120.887 132.101C120.393 132.623 120.174 133.345 120.305 134.044Z" fill="white" stroke="black" stroke-width="4"/>
</svg>
