<svg width="234" height="152" viewBox="0 0 234 152" fill="none" xmlns="http://www.w3.org/2000/svg">
<g clip-path="url(#clip0_5362_1361)">
<path d="M40.1302 38.6225C38.3791 38.4927 36.7925 37.8008 35.7874 36.7213C27.0698 27.2766 18.7754 17.3711 11.1696 7.29099C10.4609 6.35656 10.642 5.57014 10.8133 5.19316C11.4018 3.8832 13.26 3.67231 13.6107 3.63679C13.9614 3.60126 14.3701 3.61105 14.7774 3.64125C15.6936 3.70918 17.9417 4.03992 19.1344 5.62551C26.7026 15.6618 34.9608 25.5031 43.6218 34.8821C44.418 35.741 44.2776 36.5304 44.1252 36.9293C43.6476 38.1245 42.0186 38.5574 41.2357 38.6224C40.8647 38.6565 40.4967 38.6497 40.1098 38.621L40.1302 38.6225Z" fill="white"/>
<path d="M14.7202 4.66349C16.064 4.76312 17.5843 5.245 18.3495 6.24515C26.0496 16.4348 34.2513 26.2104 42.9124 35.5894C44.0494 36.8222 42.1329 37.5415 41.1857 37.6148C40.8773 37.633 40.5281 37.6481 40.2023 37.6239C38.8585 37.5243 37.443 37.0092 36.5322 36.0393C27.8727 26.6399 19.671 16.8643 11.9913 6.67614C11.0217 5.39423 12.6266 4.73387 13.7179 4.65071C14.0264 4.63256 14.3755 4.61743 14.742 4.6446M14.8933 2.60491C14.4453 2.57169 13.9943 2.57928 13.5622 2.60877C12.2032 2.7131 10.5402 3.32813 9.90192 4.75746C9.45828 5.77053 9.61945 6.91048 10.3644 7.90912C17.9891 18.0111 26.3023 27.9386 35.0591 37.4067C36.2338 38.6833 38.0572 39.4953 40.073 39.6447C40.5006 39.6764 40.9312 39.6674 41.3633 39.6379C42.4546 39.5547 44.4841 38.9668 45.139 37.3131C45.3397 36.8153 45.662 35.5061 44.4277 34.2046C35.7463 24.8241 27.5273 15.0062 19.9765 5.01217C18.5213 3.09949 15.9302 2.70229 14.8714 2.62379L14.8933 2.60491Z" fill="#F18B1F"/>
<path d="M74.5638 40.0267C74.1566 39.9965 73.7509 39.9459 73.4078 39.8795C72.358 39.6786 71.3061 39.2314 70.6094 38.6876C69.7777 38.0311 69.075 37.0151 69.536 36.0443C72.986 28.9989 74.3766 21.2881 73.5206 13.7798C73.4499 13.0773 73.6393 12.4555 74.0828 11.9962C74.9699 11.0775 76.5702 11.0321 77.4661 11.0985C78.5656 11.18 79.6689 11.4874 80.5157 11.9399C81.3436 12.3704 82.3337 13.1001 82.4474 14.052C83.3952 22.5309 81.9735 30.9368 78.3303 38.3781C77.9192 39.2295 76.9258 40.2018 74.5638 40.0267Z" fill="white"/>
<path d="M77.4119 12.12C78.2874 12.1849 79.2527 12.4205 80.0399 12.848C80.4335 13.0618 81.3746 13.6238 81.4356 14.1821C82.3638 22.3725 81.0418 30.5396 77.422 37.9416C76.9172 38.9501 75.7385 39.1089 74.639 39.0273C74.2724 39.0002 73.9075 38.9526 73.5847 38.8877C72.7966 38.7472 71.8608 38.3907 71.2221 37.8921C70.9507 37.6874 70.205 36.9758 70.4449 36.5014C73.8965 29.4356 75.4055 21.5079 74.533 13.6703C74.3568 12.1806 76.292 12.0369 77.3915 12.1185L77.4119 12.12ZM77.5631 10.0803L77.5224 10.0773C76.2396 9.98215 74.4485 10.116 73.3381 11.2847C72.6729 11.9737 72.3793 12.8954 72.49 13.888C73.3189 21.2097 71.9637 28.718 68.6087 35.5859C67.9825 36.8521 68.5064 38.3471 69.9579 39.4801C70.7896 40.1366 71.9999 40.657 73.2125 40.8699C73.6778 40.9455 74.082 41.0164 74.4892 41.0466C77.5638 41.2746 78.8032 39.7463 79.2611 38.8163C82.9994 31.1975 84.4566 22.5891 83.4816 13.9236C83.3197 12.517 82.0598 11.5622 81.0154 11.013C80.0306 10.4888 78.8067 10.152 77.585 10.0614L77.5631 10.0803Z" fill="#F18B1F"/>
<path d="M137.146 58.6349C135.517 58.5142 133.511 57.9553 132.72 56.7481C126.673 47.4604 121.584 37.6695 117.561 27.5884C116.767 27.5295 115.973 27.4706 115.179 27.4118C112.186 27.1898 109.453 27.0488 106.794 27.0157C106.794 27.0157 106.57 26.9991 106.549 26.9976C105.348 26.9085 102.184 26.2228 101.766 24.1408C101.602 23.3083 101.89 22.7349 102.182 22.3874C102.991 21.4219 104.552 21.3531 105.656 21.3734C108.395 21.4329 111.313 21.5672 114.55 21.8072L115.365 21.8676C114.248 18.7084 113.229 15.5976 112.388 12.5819C112.192 11.9111 112.321 11.2848 112.727 10.7817C113.582 9.73762 115.325 9.70276 116.282 9.77372C118.399 9.93072 120.768 10.8446 121.238 12.5202C122.214 15.9151 123.329 19.3817 124.569 22.8166C131.789 23.7416 139.034 25.1606 146.124 26.9989L147.472 18.2183C147.667 16.9613 148.966 16.5653 149.446 16.4369C149.991 16.2722 150.609 16.2155 151.301 16.2668C151.709 16.297 152.093 16.3665 152.476 16.4359C154.112 16.7418 156.776 17.8211 156.43 19.99L154.941 29.5804C158.863 30.8146 162.353 32.0578 165.576 33.3222C166.551 33.7021 168.523 34.9968 168.408 36.547C168.369 37.0773 168.055 37.9974 166.388 38.3866C156.142 40.7238 145.419 41.4875 134.485 40.6768C133.731 40.621 132.958 40.5636 132.206 40.4873C134.816 45.603 137.663 50.5517 140.734 55.2503C141.413 56.3056 141.149 57.1064 140.916 57.4789C140.168 58.736 138.2 58.7746 137.08 58.6916L137.146 58.6349ZM129.467 34.6238C130.888 34.7907 132.29 34.9356 133.715 35.0413C138.968 35.4308 144.234 35.37 149.471 34.8764C149.471 34.8764 149.471 34.8764 149.451 34.8749C148.22 34.64 146.246 33.9194 145.654 32.5219C139.511 30.877 133.22 29.5697 126.9 28.6499C127.767 30.7651 128.604 32.7345 129.467 34.6238Z" fill="white"/>
<path d="M116.226 10.7741C117.998 10.9055 119.97 11.6464 120.275 12.7765C121.331 16.4849 122.515 20.1208 123.845 23.7264C131.654 24.7155 139.384 26.2116 146.972 28.2508C147.483 24.9457 147.994 21.6406 148.505 18.3356C148.59 17.7471 149.283 17.5113 149.765 17.3625C150.247 17.2136 150.76 17.1902 151.269 17.2279C151.636 17.2551 152.001 17.3027 152.344 17.3691C153.373 17.5685 155.712 18.3366 155.484 19.7554C154.939 23.2425 154.414 26.7311 153.869 30.2183C157.71 31.426 161.525 32.7138 165.264 34.201C166.577 34.7086 168.886 36.7051 166.221 37.3073C155.809 39.6732 145.214 40.3644 134.626 39.5794C133.262 39.4782 131.899 39.3567 130.519 39.1928C133.332 44.8773 136.465 50.4009 139.939 55.7243C140.894 57.2101 139.155 57.7376 137.221 57.5941C135.714 57.4824 134.095 56.9522 133.58 56.1757C127.515 46.8456 122.353 36.9467 118.266 26.6148C117.248 26.5393 116.252 26.4449 115.234 26.3695C112.444 26.1626 109.63 26.0155 106.828 25.9719C106.767 25.9673 106.706 25.9628 106.645 25.9583C105.464 25.8707 103.037 25.1985 102.784 23.9083C102.487 22.3891 104.661 22.3451 105.643 22.3564C108.587 22.4106 111.544 22.5683 114.476 22.7857C115.27 22.8446 116.085 22.905 116.879 22.9638C115.584 19.4428 114.416 15.8697 113.374 12.2444C113.033 11.0501 114.538 10.6284 116.208 10.7522M133.619 36.0387C141.397 36.6154 149.226 36.2319 156.9 34.8935C155.563 34.4252 154.223 33.9977 152.883 33.5702C152.649 33.6964 152.375 33.7992 152.145 33.8641C151.663 34.013 151.149 34.0364 150.64 33.9987C150.274 33.9715 149.909 33.924 149.566 33.8575C148.596 33.6831 146.48 32.9519 146.431 31.6767C139.468 29.7659 132.388 28.3386 125.212 27.3758C126.298 30.1226 127.467 32.8549 128.7 35.551C130.323 35.7533 131.949 35.9149 133.558 36.0342M116.378 8.73444C114.952 8.62877 113.017 8.77242 111.956 10.1089C111.347 10.8636 111.151 11.854 111.426 12.8383C112.158 15.3946 112.985 18.0401 113.913 20.7136C110.94 20.4932 108.246 20.3755 105.691 20.3296C104.382 20.3145 102.51 20.4219 101.432 21.7161C100.826 22.43 100.614 23.3577 100.809 24.3156C101.331 26.9384 104.763 27.8697 106.514 27.9995C106.616 28.007 106.718 28.0146 106.82 28.0221C109.437 28.0726 112.151 28.1918 115.123 28.4122C115.714 28.456 116.304 28.4997 116.875 28.542C120.889 38.4584 125.946 48.1239 131.901 57.2817C133.151 59.1997 136.194 59.5689 137.111 59.6369C139.452 59.8105 141.156 59.1984 141.906 57.921C142.186 57.4495 142.709 56.1962 141.679 54.6227C138.958 50.4627 136.416 46.0904 134.067 41.5889C134.21 41.5994 134.373 41.6115 134.515 41.6221C145.551 42.4403 156.378 41.6638 166.707 39.3122C169.102 38.7719 169.464 37.1991 169.511 36.5668C169.682 34.2619 167.053 32.7134 166.039 32.3101C163.035 31.1235 159.803 29.9815 156.183 28.8312L156.657 25.7489L157.527 20.0914C157.922 17.5161 155.403 15.8732 152.737 15.3883C152.253 15.2909 151.826 15.2388 151.46 15.2117C150.625 15.1498 149.903 15.2193 149.234 15.4158C147.642 15.8925 146.738 16.7689 146.542 18.026L146.258 19.9327L145.358 25.7111C138.786 24.0548 132.106 22.7597 125.395 21.8725C124.241 18.6491 123.192 15.4128 122.281 12.228C121.633 9.92393 118.718 8.92844 116.417 8.75786L116.378 8.73444ZM130.15 33.6691C129.605 32.4597 129.062 31.2298 128.523 29.9388C134.069 30.8012 139.571 31.968 144.953 33.3924C145.116 33.6712 145.324 33.9122 145.553 34.1342C141.627 34.3354 137.7 34.2903 133.79 34.0005C132.589 33.9114 131.369 33.8005 130.152 33.6487L130.15 33.6691Z" fill="#F18B1F"/>
<path d="M184.162 60.1105C183.51 60.0622 182.825 59.9089 182.065 59.668C181.825 59.5887 179.689 58.856 179.208 57.3437C179.007 56.734 179.137 56.0874 179.547 55.523L184.087 49.5223C184.745 48.6482 185.901 48.5288 186.602 48.4577C186.953 48.4222 187.28 48.426 187.626 48.4516C188.278 48.4999 188.963 48.6533 189.723 48.8942C189.962 48.9735 192.099 49.7061 192.58 51.2185C192.779 51.8485 192.651 52.4748 192.241 53.0391L187.681 59.0383C187.022 59.9124 185.867 60.0319 185.165 60.1029C184.815 60.1384 184.467 60.1332 184.121 60.1075L184.162 60.1105Z" fill="white"/>
<path d="M187.592 49.4737C188.223 49.5205 188.867 49.6708 189.445 49.8778C190.345 50.1701 192.354 51.2419 191.447 52.4257C189.927 54.4255 188.407 56.4252 186.907 58.4265C186.522 58.9311 185.695 59.0339 185.097 59.0921C184.809 59.1118 184.521 59.1314 184.236 59.1103C183.605 59.0635 182.961 58.9132 182.383 58.7062C181.483 58.4139 179.474 57.3421 180.381 56.1583C181.901 54.1585 183.421 52.1588 184.92 50.1575C185.306 49.6529 186.132 49.5501 186.73 49.4919C187.019 49.4722 187.307 49.4526 187.592 49.4737ZM187.743 47.434C187.315 47.4023 186.905 47.4129 186.534 47.4469C185.729 47.5308 184.244 47.6873 183.314 48.9104L181.383 51.4745L178.774 54.9111C178.161 55.7271 177.966 56.6971 178.264 57.6421C178.877 59.5949 181.288 60.4914 181.769 60.6296C182.609 60.897 183.375 61.0564 184.108 61.1107C184.536 61.1424 184.946 61.1318 185.317 61.0978C186.122 61.0139 187.608 60.8574 188.538 59.6343L190.671 56.8186L193.098 53.6351C193.711 52.8192 193.906 51.8492 193.607 50.9041C192.994 48.9514 190.584 48.0548 190.103 47.9166C189.262 47.6492 188.496 47.4899 187.763 47.4355L187.743 47.434Z" fill="#F18B1F"/>
<path d="M25.2469 73.062C24.2492 72.9881 21.8179 72.6438 20.791 71.0294C20.1683 70.0399 20.3887 69.2769 20.5818 68.881C21.1846 67.6541 22.8158 67.4674 23.3106 67.4221C33.0022 66.7665 42.9697 66.8082 52.9062 67.5449C57.7319 67.9026 62.6473 68.4311 67.5302 69.1213C68.3605 69.2444 70.3211 69.8615 71.1542 71.0512C71.5252 71.571 71.6457 72.1541 71.5219 72.7192C71.3272 73.6892 70.4861 74.8164 67.6762 74.6081C67.2486 74.5764 66.8429 74.5258 66.5797 74.4857C62.466 73.9141 58.2821 73.4604 54.1283 73.1524C44.9859 72.4746 35.6512 72.4593 26.3917 73.0854C26.0629 73.102 25.6933 73.1157 25.2861 73.0855L25.2469 73.062Z" fill="white"/>
<path d="M52.8117 68.5639C57.6781 68.9247 62.5324 69.4487 67.3746 70.1359C68.2864 70.265 70.799 71.1691 70.5144 72.5221C70.2918 73.5926 68.8732 73.672 67.7329 73.5874C67.3257 73.5572 66.9403 73.5082 66.6772 73.4681C62.5242 72.8731 58.3592 72.4413 54.1647 72.1303C44.8798 71.4419 35.5654 71.4281 26.2855 72.0527C25.9974 72.0724 25.6701 72.0686 25.324 72.0429C23.9801 71.9433 22.2939 71.4901 21.6524 70.4787C20.8065 69.1854 22.2063 68.5303 23.379 68.4532C33.1943 67.7863 43.0381 67.8393 52.832 68.5655M52.9833 66.5258C43.0061 65.7861 32.9979 65.7414 23.2436 66.4128C21.5777 66.5149 20.2518 67.2779 19.6754 68.4247C19.1941 69.394 19.2926 70.5498 19.9531 71.5832C21.2377 73.5858 24.0529 73.9996 25.1931 74.0841C25.6411 74.1174 26.0498 74.1271 26.4412 74.0946C35.6804 73.4671 44.9525 73.4982 54.0338 74.1715C58.1672 74.4779 62.3308 74.9302 66.4038 75.4988C66.7077 75.5418 67.1338 75.5939 67.5817 75.6271C71.4708 75.9155 72.3203 73.8455 72.5106 72.9367C72.6759 72.0876 72.4951 71.2128 71.9779 70.4566C70.8666 68.8771 68.4783 68.2283 67.6684 68.1067C62.7651 67.4151 57.8293 66.885 52.9833 66.5258Z" fill="#F18B1F"/>
<path d="M42.0521 127.283C38.4684 127.017 34.7502 124.978 32.5675 122.109C27.5891 115.525 29.1665 105.572 36.0747 99.9319C39.7344 96.9628 44.3327 95.4169 50.4738 95.1543C50.9586 91.9293 51.2194 88.6877 51.2517 85.4907C39.631 85.6546 28.1249 86.4833 17.001 87.9556C16.7318 87.9972 16.4452 87.9964 16.1398 87.9738C14.124 87.8243 11.1054 86.2879 11.0568 84.459C11.0441 83.8018 11.3761 82.6369 13.8166 82.3051C25.8515 80.6953 38.3614 79.859 51.0597 79.7955C50.9168 77.857 50.7527 76.2042 50.5011 74.6268C50.3881 73.9416 50.5994 73.301 51.0241 72.8198C51.936 71.8414 53.5974 71.8005 54.5137 71.8685C56.672 72.0285 59.1364 73.0315 59.4136 74.8159C59.6463 76.3713 59.8307 78.0257 59.9812 79.8622C65.2542 79.9865 70.5572 80.2566 75.7698 80.6431C82.9371 81.1744 90.1677 81.9566 97.2361 82.9934C98.0663 83.1165 100.027 83.7336 100.86 84.9233C101.231 85.443 101.352 86.0262 101.228 86.5913C101.033 87.5613 100.192 88.6885 97.3617 88.4786C96.9341 88.4469 96.5284 88.3963 96.2448 88.3548C89.8642 87.4306 83.3244 86.7201 76.8087 86.237C71.3518 85.8324 65.781 85.5835 60.2403 85.4803C60.2615 88.7839 60.0542 92.132 59.623 95.4635C60.7022 95.5435 61.7783 95.6643 62.8356 95.7632C64.319 95.9142 65.7428 96.0403 67.1477 96.1444C80.4438 97.1302 93.9412 98.4385 106.973 99.6714C107.462 99.7076 111.685 100.185 111.934 102.623C112.005 103.326 111.797 103.926 111.331 104.404C110.401 105.36 108.742 105.36 108.07 105.311C94.9567 104.072 81.5392 102.79 68.1632 101.778C66.9619 101.689 65.7213 101.576 64.4212 101.439C63.0396 101.295 61.6158 101.169 60.1702 101.062C59.6815 101.026 59.1928 100.99 58.7041 100.953C57.6927 105.759 56.1812 110.406 54.1947 114.832C53.9736 115.328 53.748 115.886 53.5006 116.462C51.8354 120.42 49.5493 125.849 45.3085 126.991C44.2647 127.262 43.172 127.366 42.0114 127.28L42.0521 127.283ZM49.2033 101.52C44.8698 102.532 41.9426 104.735 40.0746 108.391C38.233 111.967 38.1561 116.042 39.8606 119.286C40.3265 120.182 40.677 120.7 40.9017 120.983C41.0873 120.689 41.3649 120.259 41.7436 119.569L41.8387 119.392C43.4976 116.623 45.0102 113.618 46.2906 110.431C47.4186 107.643 48.3973 104.66 49.1626 101.517L49.2033 101.52Z" fill="white"/>
<path d="M54.4791 72.891C56.2709 73.0239 58.2587 73.8275 58.4387 74.9894C58.743 76.9603 58.9251 78.9221 59.0665 80.881C64.6261 81.006 70.1765 81.2535 75.7149 81.6641C82.8618 82.194 90.0109 82.9701 97.12 84.0099C98.0318 84.139 100.544 85.0431 100.26 86.3961C100.037 87.4666 98.6186 87.546 97.4783 87.4615C97.0711 87.4313 96.6857 87.3822 96.4225 87.3422C89.9401 86.4104 83.441 85.7029 76.905 85.2184C71.0205 84.7821 65.1224 84.5294 59.2325 84.4414C59.3245 88.4474 59.0703 92.4279 58.4904 96.3841C61.4632 96.6045 64.3658 96.9428 67.0724 97.164C80.3481 98.1482 93.6216 99.44 106.878 100.689C107.855 100.762 110.782 101.327 110.923 102.733C111.063 104.158 109.286 104.375 108.167 104.292C108.126 104.289 108.085 104.286 108.065 104.284C94.8102 103.015 81.5337 101.764 68.2595 100.759C65.7754 100.575 63.056 100.25 60.2664 100.043C59.4723 99.9845 58.6986 99.9271 57.9015 99.909C56.9186 104.881 55.3905 109.752 53.2826 114.436C51.6152 118.147 49.3982 124.853 45.0541 126.008C44.0933 126.265 43.1054 126.335 42.1076 126.261C38.7276 126.011 35.3102 124.055 33.3726 121.471C28.4319 114.931 30.6343 105.66 36.7129 100.717C40.8523 97.3529 46.0093 96.2791 51.3427 96.1413C51.9777 92.2712 52.2884 88.3565 52.2718 84.438C40.4287 84.5649 28.6171 85.3709 16.8514 86.9392C16.6448 86.9649 16.4193 86.9687 16.1953 86.9521C13.5687 86.7574 9.70727 83.8869 13.9245 83.3382C26.6201 81.6543 39.3728 80.8565 52.1307 80.818C52.0014 78.6959 51.8299 76.5913 51.4939 74.495C51.3011 73.2296 52.7876 72.7861 54.4369 72.9084M40.9855 122.343C40.9855 122.343 41.0058 122.344 41.0262 122.346C41.3957 122.332 42.6066 120.084 42.6986 119.947C44.4495 117.042 45.9448 113.994 47.2426 110.85C48.6444 107.406 49.7266 103.856 50.547 100.246C45.8229 101.003 41.6566 103.073 39.1451 107.953C37.2772 111.608 37.0056 116.1 38.943 119.792C39.2106 120.324 40.2525 122.288 41.0058 122.344M54.6085 70.8702C52.7148 70.7298 51.1861 71.1907 50.296 72.1502C49.6292 72.8596 49.3545 73.8031 49.5059 74.7988C49.7003 76.0437 49.8493 77.3469 49.9674 78.7913C37.5934 78.8993 25.4108 79.7393 13.6859 81.3106C10.3359 81.7596 10.0293 83.6852 10.0503 84.5071C10.1372 87.2003 13.9672 88.8378 16.0848 88.9948C16.4513 89.022 16.8209 89.0084 17.1512 88.9713C27.8837 87.5315 38.9999 86.715 50.2337 86.5224C50.1683 89.0607 49.9574 91.6292 49.604 94.1871C43.6386 94.5652 39.0969 96.1768 35.4372 99.1459C28.0945 105.123 26.4499 115.707 31.7645 122.726C34.1138 125.833 38.1284 128.017 41.9768 128.302C43.2392 128.396 44.4557 128.281 45.6043 127.977C50.3239 126.727 52.733 121.019 54.4744 116.862C54.7219 116.286 54.946 115.749 55.167 115.252C57.0554 111.044 58.511 106.599 59.5466 102.02C59.7502 102.035 59.9335 102.049 60.1371 102.064C61.5624 102.17 62.9847 102.316 64.3678 102.439C65.6694 102.556 66.9084 102.689 68.1301 102.78C81.3652 103.761 94.8218 105.066 107.834 106.298L108.058 106.314C109.055 106.388 110.922 106.342 112.118 105.118C112.783 104.429 113.097 103.509 112.987 102.516C112.67 99.3345 108.027 98.7237 107.112 98.6353C94.039 97.3995 80.5605 96.1131 67.2659 95.1069C65.9016 95.0057 64.4793 94.8593 63.0148 94.7302C62.2818 94.6759 61.5518 94.5807 60.8188 94.5264C61.1391 91.8634 61.298 89.168 61.3098 86.5232C66.5013 86.6415 71.6837 86.8822 76.7741 87.2596C83.2695 87.7411 89.7889 88.4501 96.1491 89.3728C96.4531 89.4159 96.8791 89.468 97.3475 89.5027C101.237 89.791 102.086 87.7211 102.276 86.8123C102.442 85.9631 102.261 85.0884 101.742 84.3526C100.631 82.773 98.2441 82.1039 97.4326 82.0027C90.3424 80.9848 83.0929 80.1807 75.8849 79.6463C70.9574 79.281 65.9598 79.0335 60.9749 78.8895C60.841 77.3824 60.6776 75.9962 60.4674 74.6886C60.1104 72.3241 57.2758 71.068 54.6492 70.8732L54.6085 70.8702ZM40.8609 119.052C40.8609 119.052 40.7901 118.903 40.7335 118.838C39.2084 115.935 39.2876 112.106 40.9594 108.887C42.4411 106.023 44.63 104.114 47.7403 103.032C47.0656 105.504 46.256 107.865 45.3551 110.074C44.0792 113.2 42.6103 116.167 40.9545 118.895L40.8594 119.073L40.8609 119.052Z" fill="#F18B1F"/>
<path d="M131.624 139.422C129.751 139.283 127.328 138.549 126.649 136.94C125.006 133.147 125.503 129.205 125.969 125.405L126.012 124.813C126.591 120.324 127.234 115.798 127.913 111.336C129.161 103.328 130.664 95.2149 132.536 86.5347C124.814 85.4701 117.836 84.604 111.238 83.8482C109.573 83.6633 106.713 83.0205 106.311 80.9809C106.177 80.3146 106.347 79.671 106.772 79.1897C107.754 78.0935 109.713 78.1772 110.1 78.2059C118.791 79.1784 127.673 80.3291 136.69 81.5924C136.73 81.5954 136.914 81.609 137.097 81.6226C137.606 81.6603 138.131 81.7608 138.675 81.8831C147.69 83.1668 156.878 84.6069 165.876 86.1353C166.584 86.2493 168.648 86.8536 169.498 88.0856C169.849 88.6038 169.971 89.1666 169.847 89.7317C169.685 90.54 168.954 91.8394 165.981 91.619C165.533 91.5858 165.127 91.5352 164.845 91.4733C157.487 90.2099 149.675 88.9745 141.634 87.8041C139.827 96.1608 138.301 104.313 137.072 112.056C136.371 116.537 135.73 121.042 135.177 125.472L134.997 126.792C134.535 130.265 134.086 133.554 135.414 136.626C135.676 137.24 135.629 137.873 135.284 138.38C134.529 139.452 132.663 139.499 131.645 139.423L131.624 139.422Z" fill="white"/>
<path d="M110.021 79.2456C110.021 79.2456 110.123 79.2531 110.164 79.2561C118.975 80.258 127.757 81.3808 136.529 82.626C136.692 82.6381 136.835 82.6486 136.998 82.6607C137.466 82.6954 137.931 82.771 138.392 82.9077C147.509 84.1989 156.616 85.6329 165.673 87.1863C166.583 87.3358 169.099 88.1991 168.813 89.5725C168.592 90.6226 167.15 90.7413 166.03 90.6583C165.623 90.6281 165.258 90.5805 164.996 90.5201C156.95 89.1442 148.894 87.8906 140.812 86.7172C138.983 95.0928 137.378 103.485 136.034 111.958C135.333 116.439 134.693 120.924 134.135 125.415C133.64 129.336 132.831 133.337 134.456 137.108C134.928 138.189 133.404 138.589 131.673 138.461C129.943 138.332 128.005 137.676 127.553 136.597C125.946 132.868 126.546 128.913 127.02 125.01C127.578 120.519 128.197 116.033 128.898 111.552C130.236 102.894 131.876 94.2993 133.739 85.7416C126.281 84.7169 118.818 83.7535 111.326 82.9109C110.229 82.7885 107.563 82.3037 107.28 80.8676C107.014 79.4943 108.958 79.2282 109.996 79.3052M110.147 77.2655C109.496 77.2172 107.247 77.1736 105.975 78.5969C105.327 79.3282 105.072 80.2733 105.266 81.2515C105.783 83.9356 109.145 84.718 111.093 84.9445C117.408 85.6588 124.04 86.4992 131.277 87.4664C129.514 95.7854 128.077 103.575 126.874 111.238C126.173 115.719 125.549 120.266 124.991 124.758L124.949 125.329C124.431 129.269 123.924 133.354 125.671 137.4C126.546 139.414 129.263 140.312 131.524 140.48C133.051 140.593 135.069 140.435 136.075 139.013C136.646 138.214 136.741 137.216 136.32 136.262C135.096 133.444 135.513 130.296 135.965 126.966C136.019 126.519 136.093 126.073 136.145 125.646C136.7 121.196 137.341 116.69 138.037 112.271C139.203 104.83 140.662 97.0221 142.383 89.0076C150.2 90.1614 157.485 91.3168 164.622 92.5228C164.926 92.5658 165.371 92.6398 165.86 92.676C169.749 92.9644 170.62 90.8755 170.811 89.9667C170.974 89.138 170.794 88.2632 170.295 87.529C169.041 85.6722 166.13 85.1692 166.009 85.1398C157.052 83.6143 147.885 82.1758 138.769 80.8642C138.206 80.7199 137.66 80.6384 137.13 80.5991C136.967 80.587 136.825 80.5765 136.662 80.5644C127.726 79.3072 118.863 78.1783 110.356 77.2194L110.132 77.2028L110.147 77.2655Z" fill="#F18B1F"/>
<path d="M142.605 115.56C141.119 115.45 139.145 115.016 138.125 113.587C137.439 112.613 137.663 111.81 137.878 111.395C138.381 110.407 139.643 109.947 140.668 109.94C146.671 109.873 152.757 110.078 158.784 110.525C163.59 110.881 168.485 111.408 173.327 112.095C173.874 112.177 176.085 112.73 176.989 114.069C177.339 114.587 177.46 115.17 177.316 115.734C177.08 116.701 176.242 117.787 173.473 117.582C173.045 117.55 172.66 117.501 172.376 117.46C168.263 116.888 164.058 116.433 159.905 116.125C154.509 115.725 149.035 115.544 143.605 115.614C143.298 115.611 142.95 115.606 142.604 115.58L142.605 115.56Z" fill="white"/>
<path d="M158.708 111.546C163.554 111.905 168.367 112.426 173.189 113.111C174.06 113.238 176.654 114.148 176.329 115.498C176.066 116.565 174.688 116.648 173.568 116.565C173.161 116.534 172.775 116.485 172.512 116.445C168.359 115.85 164.174 115.417 160 115.107C154.543 114.703 149.069 114.523 143.618 114.59C143.332 114.589 143.025 114.587 142.699 114.563C141.335 114.462 139.726 114.076 138.965 113.015C138.074 111.78 139.544 111.007 140.691 110.989C146.716 110.923 152.72 111.122 158.727 111.567M158.878 109.528C152.83 109.079 146.702 108.892 140.678 108.958C139.429 108.968 137.731 109.498 136.986 110.981C136.46 112.009 136.577 113.186 137.319 114.226C138.322 115.613 140.123 116.443 142.546 116.623C142.933 116.652 143.3 116.679 143.628 116.662C149.017 116.611 154.471 116.769 159.847 117.167C163.98 117.474 168.144 117.926 172.237 118.496C172.562 118.541 172.967 118.591 173.436 118.626C177.08 118.896 178.075 117.083 178.34 115.995C178.546 115.149 178.365 114.274 177.868 113.52C176.76 111.899 174.291 111.224 173.502 111.104C168.639 110.416 163.724 109.887 158.878 109.528Z" fill="#F18B1F"/>
<path d="M173.621 140.749C165.232 140.127 156.74 137.857 149.087 134.213C148.216 133.8 147.176 132.923 147.117 131.79C147.087 131.357 147.21 130.526 148.198 129.902C148.908 129.441 149.822 129.263 150.881 129.342C152.306 129.447 153.596 129.994 154.07 130.234C159.804 132.977 166.03 134.608 172.525 135.089C176.577 135.39 180.705 135.224 184.782 134.624C185.135 134.568 185.545 134.557 185.993 134.59C187.581 134.708 189.578 135.389 190.427 136.642C191.037 137.528 190.923 138.237 190.725 138.694C190.378 139.51 189.459 140.036 188.009 140.257C183.31 140.954 178.464 141.149 173.618 140.79L173.621 140.749Z" fill="white"/>
<path d="M150.807 130.342C151.825 130.417 152.883 130.783 153.634 131.146C159.566 133.985 165.954 135.628 172.45 136.11C176.603 136.418 180.792 136.256 184.934 135.62C185.223 135.58 185.552 135.563 185.919 135.591C187.263 135.69 188.941 136.245 189.567 137.194C190.471 138.533 188.958 139.056 187.84 139.22C183.162 139.919 178.4 140.078 173.676 139.728C165.307 139.108 157.057 136.896 149.504 133.28C148.456 132.772 147.42 131.567 148.73 130.741C149.31 130.374 150.033 130.284 150.786 130.34M150.938 128.3C149.655 128.205 148.531 128.45 147.629 129.019C146.577 129.679 146.008 130.724 146.069 131.836C146.158 133.401 147.443 134.563 148.61 135.121C156.381 138.835 164.973 141.134 173.504 141.766C178.432 142.132 183.359 141.943 188.121 141.23C189.923 140.953 191.102 140.241 191.619 139.069C191.865 138.513 192.133 137.384 191.229 136.046C190.122 134.405 187.74 133.675 186.029 133.548C185.5 133.509 185.029 133.515 184.593 133.585C180.597 134.191 176.553 134.342 172.562 134.046C166.188 133.574 160.104 131.974 154.468 129.28C153.796 128.964 152.444 128.412 150.917 128.299L150.938 128.3Z" fill="#F18B1F"/>
<path d="M193.365 103.328C192.957 103.298 192.572 103.249 192.23 103.162C191.505 103.006 190.2 102.663 189.374 101.925C187.686 100.385 186.472 98.8179 185.542 97.0057C184.755 95.4707 184.288 93.7544 184.169 91.7766C184.178 91.6542 184.187 91.5319 184.196 91.4095C184.385 90.7877 184.81 90.3065 185.404 90.0224L186.099 89.7663C186.706 89.5857 187.324 89.529 188.017 89.5803C188.424 89.6105 188.808 89.68 189.192 89.7495C190.241 89.9503 191.293 90.3975 191.99 90.9414C192.323 91.1506 192.626 91.4807 192.84 91.9068C193.079 92.2731 193.192 92.6712 193.159 93.12C193.313 94.3619 193.731 95.6235 194.417 96.8639C194.947 97.7235 195.583 98.5295 196.309 99.2396C196.654 99.5523 197.381 100.242 197.257 101.361C197.121 102.643 195.78 103.056 195.258 103.202C194.713 103.367 194.074 103.422 193.321 103.366L193.365 103.328Z" fill="white"/>
<path d="M187.962 90.6023C188.328 90.6295 188.693 90.6771 189.036 90.7435C189.825 90.884 190.76 91.2405 191.399 91.7391C191.673 91.903 191.881 92.1439 192.004 92.4197C192.153 92.6153 192.218 92.8457 192.179 93.089C192.187 92.987 192.155 92.8616 192.142 92.7581C192.133 92.8805 192.165 93.0059 192.176 93.1298C192.176 93.1298 192.178 93.1094 192.179 93.089C192.355 94.5787 192.843 96.0095 193.564 97.3345C194.149 98.2802 194.842 99.152 195.622 99.9481C195.603 99.9262 195.564 99.9028 195.545 99.8809C195.602 99.9466 195.66 99.992 195.716 100.058C195.677 100.034 195.639 99.9904 195.621 99.9685C196.004 100.325 196.346 100.679 196.283 101.248C196.219 101.838 195.485 102.071 195.024 102.221C194.564 102.351 194.008 102.392 193.458 102.351C193.112 102.326 192.767 102.28 192.465 102.216C191.739 102.06 190.678 101.735 190.102 101.221C188.606 99.8587 187.405 98.3955 186.474 96.5832C185.687 95.0482 185.315 93.4414 185.215 91.7523C185.322 91.4116 185.525 91.16 185.864 91.0006C186.074 90.9341 186.265 90.8457 186.475 90.7792C186.957 90.6304 187.47 90.6069 187.979 90.6446M188.13 88.6049C187.296 88.5431 186.574 88.6126 185.904 88.8091C185.863 88.806 185.821 88.8234 185.779 88.8408L185.169 89.0622C185.169 89.0622 185.064 89.0954 185.022 89.1128C184.154 89.4996 183.526 90.2324 183.254 91.1352C183.175 91.3754 183.157 91.6202 183.181 91.8476C183.331 93.9711 183.809 95.8113 184.666 97.4952C185.65 99.4139 186.978 101.112 188.723 102.698C189.701 103.59 191.226 104.011 192.052 104.195C192.475 104.288 192.901 104.34 193.308 104.371C194.184 104.436 194.946 104.369 195.596 104.171C197.25 103.678 198.157 102.761 198.315 101.46C198.495 99.8535 197.462 98.8746 197.042 98.4742C196.412 97.8533 195.831 97.1334 195.339 96.3175C194.744 95.2275 194.374 94.1336 194.229 93.0564C194.253 92.4633 194.091 91.8771 193.76 91.3808C193.472 90.8468 193.073 90.4275 192.586 90.0838C191.752 89.4682 190.581 88.9712 189.41 88.7408C188.926 88.6434 188.52 88.5928 188.133 88.5642L188.13 88.6049Z" fill="#F18B1F"/>
<path d="M198.691 101.939C197.713 101.867 196.63 101.561 195.784 101.108C194.739 100.559 194.092 99.8961 193.88 99.1626C192.999 96.1439 192.806 92.9507 193.294 89.9516C193.49 88.6945 194.787 88.319 195.269 88.1701C195.813 88.0054 196.432 87.9487 197.144 88.0015C197.552 88.0317 197.935 88.1012 198.319 88.1707C199.369 88.3716 200.421 88.8187 201.118 89.3626C202.24 90.2456 202.358 91.1363 202.273 91.7248C202.079 92.9614 202.004 94.248 202.091 95.5669C202.207 96.7651 202.424 97.9707 202.75 99.1023C202.914 99.6478 202.983 100.658 201.694 101.465C200.836 101.996 199.832 102.003 198.874 101.953L198.711 101.941L198.691 101.939Z" fill="white"/>
<path d="M197.049 88.9994C197.415 89.0265 197.78 89.0741 198.103 89.139C198.891 89.2795 199.827 89.636 200.466 90.1346C200.872 90.4518 201.326 90.9572 201.243 91.5253C201.021 92.8624 200.96 94.232 201.044 95.5918C201.154 96.8715 201.389 98.1195 201.748 99.3561C201.91 99.9219 201.576 100.287 201.126 100.561C200.502 100.966 199.603 100.94 198.891 100.888C198.85 100.885 198.809 100.882 198.748 100.877C197.913 100.815 196.971 100.54 196.242 100.158C195.75 99.8959 195.028 99.4117 194.846 98.824C194.033 95.9949 193.807 92.9633 194.289 90.0458C194.394 89.4588 195.067 89.2216 195.549 89.0727C196.031 88.9239 196.544 88.9004 197.054 88.9382M197.205 86.8985C196.37 86.8366 195.648 86.9061 194.978 87.1026C193.387 87.5794 192.483 88.4557 192.287 89.7128C191.787 92.8751 191.99 96.2126 192.901 99.3771C193.195 100.383 194.01 101.264 195.312 101.935C196.297 102.459 197.5 102.794 198.62 102.877L198.803 102.891C199.64 102.933 201.027 102.994 202.23 102.243C204.204 101.015 203.864 99.2465 203.719 98.7229C203.409 97.654 203.207 96.5111 203.09 95.3333C203.035 94.1397 203.084 92.9333 203.272 91.7782C203.386 91.0689 203.343 89.7121 201.738 88.4446C200.906 87.7881 199.696 87.2677 198.483 87.0548C197.999 86.9574 197.593 86.9068 197.206 86.8781L197.205 86.8985Z" fill="#F18B1F"/>
<path d="M214.303 140.443C214.161 140.432 214.001 140.38 213.863 140.308C213.745 140.238 213.631 140.126 213.557 140.018C213.315 139.693 213.212 139.152 213.4 138.817C213.567 138.502 213.889 138.3 214.238 138.285C214.279 138.288 214.34 138.292 214.381 138.295C214.686 138.318 214.962 138.461 215.127 138.72L215.182 138.806C215.481 139.197 215.481 139.751 215.147 140.116C214.923 140.366 214.607 140.486 214.302 140.463L214.303 140.443Z" fill="white"/>
<path d="M214.287 139.294C214.324 139.338 214.342 139.38 214.379 139.424C214.305 139.316 214.266 139.292 214.287 139.294ZM214.438 137.254C213.644 137.195 212.876 137.61 212.496 138.32C212.259 138.754 211.989 139.636 212.771 140.679C213.145 141.158 213.678 141.423 214.248 141.465C214.717 141.5 215.177 141.37 215.586 141.092C216.473 140.461 216.707 139.227 216.1 138.3C216.082 138.278 216.044 138.235 216.027 138.192C215.953 138.084 215.803 137.889 215.687 137.798C215.342 137.485 214.906 137.289 214.438 137.254Z" fill="#F18B1F"/>
<path d="M212.156 149.493C209.957 149.33 207.815 148.679 206.151 147.653C205.484 147.255 204.683 146.745 204.322 145.816C204.255 145.606 204.209 145.397 204.202 145.212C204.086 145.121 203.972 145.01 203.857 144.899C202.318 143.288 201.598 141.122 201.944 139.22C202.346 137.117 203.922 135.736 205.189 134.948C206.927 133.867 209.134 133.375 211.79 133.449C211.953 133.461 212.136 133.474 212.319 133.488C216.249 133.779 220.939 135.973 222.51 140.191C223.721 143.46 222.153 146.932 218.784 148.467C217.006 149.258 215.013 149.623 212.706 149.534C212.523 149.52 212.34 149.507 212.156 149.493ZM211.773 143.066C212.177 143.137 212.56 143.227 212.94 143.337C213.159 143.148 213.268 143.054 213.359 142.937C213.492 142.804 213.609 142.607 213.727 142.391C213.83 142.111 213.921 141.708 213.915 141.235C213.859 140.883 213.783 140.528 213.642 140.231L213.536 139.997C213.536 139.997 213.443 139.867 213.387 139.802C213.313 139.694 213.239 139.586 213.165 139.478C213.109 139.412 213.072 139.348 213.014 139.302C212.956 139.257 212.917 139.234 212.859 139.188L212.607 139.272C212.374 139.378 212.161 139.485 211.947 139.613L211.115 138.956L211.73 139.781C211.51 139.991 211.285 140.261 211.049 140.674C210.997 140.834 210.932 141.158 210.929 141.465C210.971 141.735 211.05 142.048 211.154 142.302C211.154 142.302 211.263 142.495 211.281 142.517C211.391 142.689 211.523 142.842 211.676 142.997C211.676 142.997 211.734 143.043 211.773 143.066Z" fill="white"/>
<path d="M212.246 134.487C216.013 134.767 220.179 136.839 221.564 140.531C222.658 143.442 221.097 146.28 218.364 147.513C216.584 148.324 214.684 148.553 212.743 148.491C212.581 148.479 212.397 148.465 212.234 148.453C210.32 148.311 208.315 147.752 206.69 146.75C206.141 146.422 205.532 146.069 205.294 145.416C205.19 145.162 205.247 144.941 205.342 144.763C205.112 144.562 204.839 144.377 204.609 144.155C203.432 142.919 202.645 141.097 202.957 139.377C203.258 137.8 204.431 136.615 205.721 135.788C207.502 134.689 209.695 134.38 211.737 134.45C211.9 134.462 212.063 134.474 212.226 134.486M213.007 138.03C213.007 138.03 213.028 138.032 213.048 138.033C213.007 138.03 212.946 138.026 212.905 138.023C212.946 138.026 212.966 138.027 213.006 138.051M213.107 138.058C213.107 138.058 213.107 138.058 213.128 138.06ZM213.469 138.147C213.469 138.147 213.432 138.103 213.249 138.089C213.269 138.091 213.269 138.091 213.288 138.113C213.39 138.12 213.449 138.145 213.469 138.147ZM212.292 138.285C212.292 138.285 212.419 138.233 212.399 138.231C212.399 138.231 212.358 138.228 212.272 138.283C212.231 138.28 212.187 138.318 212.167 138.317C212.167 138.317 212.228 138.321 212.27 138.304C211.995 138.427 211.718 138.571 211.462 138.716C211.376 138.771 211.31 138.827 211.226 138.862C211.224 138.883 211.16 138.919 211.095 138.975C210.743 139.298 210.468 139.688 210.213 140.1C210.038 140.517 209.966 140.943 209.953 141.393C210.003 141.827 210.093 142.265 210.287 142.689C210.285 142.71 210.34 142.796 210.375 142.88C210.43 142.967 210.484 143.073 210.504 143.075C210.652 143.291 210.803 143.466 210.972 143.663C211.01 143.707 211.029 143.729 211.048 143.751C211.124 143.818 211.222 143.887 211.261 143.91C211.319 143.955 211.358 143.979 211.416 144.024C211.943 144.104 212.527 144.229 213.106 144.436C213.381 144.313 213.678 144.171 213.709 144.03C213.643 144.087 213.579 144.123 213.514 144.18C213.6 144.124 213.665 144.068 213.732 143.991C213.885 143.858 214.018 143.725 214.131 143.59C214.33 143.379 214.472 143.123 214.613 142.887C214.837 142.35 214.94 141.783 214.942 141.209C214.875 140.732 214.787 140.254 214.595 139.809C214.543 139.682 214.49 139.576 214.438 139.449C214.438 139.449 214.439 139.429 214.42 139.407C214.42 139.407 214.42 139.407 214.438 139.449C214.438 139.449 214.419 139.427 214.4 139.405C214.364 139.341 214.326 139.297 214.307 139.275C214.196 139.123 214.085 138.951 213.974 138.799C213.9 138.691 213.804 138.602 213.71 138.493C213.73 138.494 213.749 138.516 213.768 138.538C213.748 138.536 213.73 138.494 213.71 138.493C213.616 138.383 213.577 138.36 213.556 138.358C213.556 138.358 213.573 138.4 213.632 138.446C213.476 138.332 213.302 138.196 213.148 138.061C213.107 138.058 213.046 138.054 213.004 138.071C212.879 138.103 212.776 138.116 212.65 138.147C212.568 138.162 212.419 138.233 212.294 138.265M211.297 143.974C211.297 143.974 211.238 143.949 211.217 143.948C211.197 143.946 211.217 143.948 211.258 143.951C211.258 143.951 211.258 143.951 211.278 143.952M211.627 144.778C211.627 144.778 211.728 144.786 211.832 144.773C211.669 144.761 211.606 144.776 211.627 144.778ZM212.402 132.386C212.219 132.373 212.015 132.358 211.832 132.344C208.992 132.257 206.578 132.796 204.667 133.987C202.607 135.27 201.333 136.98 200.964 138.922C200.555 141.127 201.392 143.65 203.138 145.502C203.175 145.546 203.215 145.569 203.252 145.613C203.281 145.779 203.332 145.927 203.382 146.074C203.861 147.34 204.879 147.969 205.544 148.388C207.424 149.553 209.705 150.255 212.088 150.432C212.291 150.447 212.475 150.46 212.678 150.475C215.15 150.556 217.286 150.181 219.213 149.319C223.109 147.578 224.903 143.547 223.485 139.751C221.742 135.089 216.678 132.703 212.402 132.386ZM212.44 140.429L212.484 140.391C212.484 140.391 212.548 140.355 212.57 140.336L212.608 140.38C212.608 140.38 212.606 140.4 212.625 140.422L212.677 140.549C212.745 140.739 212.81 140.969 212.869 141.281C212.852 141.505 212.835 141.73 212.739 141.928C212.692 142.006 212.647 142.064 212.623 142.104C212.501 142.095 212.382 142.045 212.261 142.015C212.205 141.95 212.169 141.885 212.112 141.82L212.077 141.735C212.043 141.65 211.994 141.483 211.97 141.255C211.977 141.153 211.986 141.031 212.035 140.932C212.173 140.717 212.309 140.542 212.42 140.427L212.44 140.429Z" fill="#F18B1F"/>
<path d="M212.172 139.32C211.846 139.296 211.551 139.131 211.367 138.851C211.112 138.422 211.173 137.872 211.545 137.551C211.633 137.476 211.739 137.422 211.846 137.368C211.994 137.297 212.159 137.289 212.321 137.301C212.688 137.328 213.039 137.559 213.195 137.94C213.402 138.468 213.175 139.046 212.646 139.274C212.497 139.345 212.333 139.353 212.17 139.341L212.172 139.32Z" fill="white"/>
<path d="M212.269 138.303C212.269 138.303 212.249 138.301 212.228 138.3C212.228 138.3 212.249 138.301 212.269 138.303ZM212.42 136.263C212.318 136.256 212.217 136.248 212.113 136.261C211.969 136.271 211.844 136.303 211.719 136.334C211.614 136.368 211.489 136.399 211.403 136.454C211.361 136.472 211.318 136.489 211.275 136.527C210.336 137.032 209.965 138.173 210.384 139.148C210.699 139.868 211.363 140.307 212.096 140.362C212.361 140.381 212.608 140.358 212.88 140.276C213.675 140.048 214.281 139.334 214.344 138.477C214.426 137.376 213.617 136.414 212.541 136.293C212.52 136.291 212.48 136.288 212.459 136.287L212.42 136.263Z" fill="#F18B1F"/>
<path d="M213.689 138.51C213.689 138.51 213.63 138.464 213.609 138.463C213.63 138.464 213.668 138.509 213.687 138.531L213.689 138.51Z" fill="white"/>
<path d="M213.609 138.463C213.609 138.463 213.667 138.508 213.687 138.51C213.667 138.508 213.629 138.464 213.61 138.443M213.762 136.403C213.11 136.355 212.434 136.633 212.005 137.175C211.35 138.008 211.444 139.225 212.23 139.94C212.307 140.007 212.442 140.12 212.52 140.167C212.833 140.374 213.171 140.502 213.517 140.528C214.128 140.573 214.738 140.351 215.183 139.872C215.873 139.123 215.916 137.998 215.278 137.213C215.185 137.083 215.05 136.97 214.914 136.878C214.894 136.876 214.856 136.833 214.835 136.831C214.795 136.828 214.757 136.784 214.738 136.762C214.426 136.555 214.086 136.447 213.76 136.423L213.762 136.403Z" fill="#F18B1F"/>
</g>
<defs>
<clipPath id="clip0_5362_1361">
<rect width="223.857" height="134.314" fill="white" transform="translate(10.0078 0.847656) rotate(4.24015)"/>
</clipPath>
</defs>
</svg>
