<svg width="204" height="807" viewBox="0 0 204 807" fill="none" xmlns="http://www.w3.org/2000/svg">
<path d="M44.9729 156.35H83.9997C88.5115 156.35 90.3162 154.32 90.3162 150.034V23.2533C90.3162 17.388 89.865 11.2971 89.4138 6.33417C89.4138 5.65742 89.1882 4.75506 89.1882 4.07829C89.1882 1.37124 91.2185 0.92006 93.4744 0.92006C95.9559 0.92006 111.973 2.49918 115.131 2.95035C116.936 3.17594 119.191 3.62712 119.191 5.883C119.191 7.46211 118.063 7.9133 116.259 9.26682C114.003 11.0715 113.777 15.5833 113.777 22.1253V150.034C113.777 154.32 115.582 156.35 120.094 156.35H158.895C163.407 156.35 165.211 154.32 165.211 150.034V62.5056C165.211 56.8659 165.211 51.0006 164.535 46.7145C164.309 46.0377 164.309 45.1353 164.309 44.4586C164.309 41.7515 166.114 41.3003 168.37 41.3003C170.4 41.3003 186.868 42.8795 189.575 43.3306C191.154 43.5562 193.41 44.0074 193.41 46.2633C193.41 47.8424 192.508 48.2936 190.703 49.6471C188.447 51.4518 188.221 56.1892 188.221 62.9568V154.771C188.221 165.599 188.673 176.202 188.673 186.805C188.673 194.249 186.417 194.475 176.716 194.475C166.565 194.475 164.76 194.249 164.76 186.579V184.323C164.76 180.037 162.73 178.232 158.444 178.232H45.4241C41.3635 178.232 39.3332 180.037 39.3332 184.323C39.3332 193.121 38.6565 193.798 27.1515 193.798C17.2256 193.798 14.7441 193.347 14.7441 186.354C14.7441 175.976 15.4209 165.374 15.4209 154.997V63.1824C15.4209 57.3171 14.9697 51.2262 14.5185 46.2633C14.5185 45.5865 14.2929 44.6842 14.2929 44.0074C14.2929 41.3003 16.3232 40.8492 18.5791 40.8492C20.835 40.8492 37.0774 42.4283 40.01 42.8795C41.8147 43.1051 44.0706 43.5562 44.0706 45.8121C44.0706 47.1656 42.7171 47.8424 41.1379 49.1959C38.8821 51.0006 38.6565 56.1892 38.6565 63.408V150.034C38.6565 154.32 40.4612 156.35 44.9729 156.35ZM89.6394 281.748V242.721C89.6394 238.886 87.3835 236.856 83.5485 236.405H45.6497C41.8147 236.856 39.7844 238.886 39.3332 242.721V281.748C39.7844 285.809 41.8147 288.064 45.6497 288.064H83.5485C87.3835 287.613 89.6394 285.809 89.6394 281.748ZM89.6394 355.966V315.361C89.6394 311.526 87.3835 309.495 83.5485 309.044H45.6497C41.8147 309.495 39.7844 311.526 39.3332 315.361V355.966C39.7844 359.801 41.8147 361.832 45.6497 362.283H83.5485C87.3835 361.832 89.6394 359.801 89.6394 355.966ZM113.101 315.361V355.966C113.552 359.801 115.582 361.832 119.417 362.283H157.993C161.828 361.832 164.083 359.801 164.083 355.966V315.361C164.083 311.526 161.828 309.495 157.993 309.044H119.417C115.582 309.495 113.552 311.526 113.101 315.361ZM119.417 288.064H157.993C161.828 287.613 164.083 285.809 164.083 281.748V242.721C164.083 238.886 161.828 236.856 157.993 236.405H119.417C115.582 236.856 113.552 238.886 113.101 242.721V281.748C113.552 285.809 115.582 288.064 119.417 288.064ZM163.632 390.933V389.354C163.632 385.744 161.828 384.165 158.444 384.165H45.1985C41.5891 384.165 40.01 385.744 40.01 389.354C40.01 397.024 38.6565 397.024 27.3771 397.024C17.6768 397.024 15.1953 397.024 15.1953 390.707C15.1953 381.232 15.8721 371.983 15.8721 362.509V247.007C15.8721 239.789 15.4209 232.795 15.4209 225.577C15.4209 216.327 19.2559 213.846 28.0538 213.846C35.0471 213.846 42.2659 214.297 49.4847 214.297H153.932C161.151 214.297 168.37 213.846 175.363 213.846C184.161 213.846 188.221 216.327 188.221 225.577C188.221 232.795 187.77 239.789 187.77 247.007V362.734C187.77 372.209 188.221 381.458 188.221 390.933C188.221 397.475 185.74 397.475 176.04 397.475C166.114 397.475 163.632 397.249 163.632 390.933ZM89.6394 563.478V533.024C89.6394 531.896 89.1882 530.768 87.6091 530.768C86.9323 530.768 86.4812 530.994 86.03 531.67C67.7573 553.552 47.68 571.148 22.8653 586.037C20.3838 587.616 15.8721 590.323 13.6162 590.323C9.55559 590.323 0.532067 578.367 0.532067 574.532C0.532067 572.051 3.6903 570.471 5.7206 569.344C32.5656 554.68 52.6429 538.212 72.9459 515.428C73.397 514.751 73.8482 514.3 73.8482 513.398C73.8482 511.367 72.2691 510.916 70.69 510.691H35.7238C26.2491 510.691 17 511.142 7.75089 511.142C2.11118 511.142 2.33677 508.209 2.33677 500.088C2.33677 491.741 2.11118 489.034 7.75089 489.034C17 489.034 26.2491 489.485 35.7238 489.485H83.3229C87.8347 489.485 89.6394 487.681 89.6394 483.169V464.671C89.6394 460.384 87.8347 458.58 83.3229 458.58H51.2894C42.4915 458.58 33.6935 459.031 24.8956 459.031C19.4815 459.031 19.4815 456.324 19.4815 447.977C19.4815 439.856 19.4815 437.149 24.8956 437.149C33.6935 437.149 42.4915 437.6 51.2894 437.6H83.3229C87.8347 437.6 89.6394 435.795 89.6394 431.284V425.193C89.6394 420.004 89.1882 414.59 88.737 409.627C88.737 408.95 88.5115 408.048 88.5115 407.371C88.5115 404.439 90.5417 404.213 92.7976 404.213C97.0838 404.213 107.912 404.89 112.875 405.115C114.68 405.341 118.74 405.341 118.74 408.274C118.74 409.853 117.612 410.304 115.808 411.657C113.326 413.688 113.101 416.169 113.101 423.839V431.735C113.101 436.021 115.131 437.6 119.417 437.6H152.353C161.151 437.6 169.949 437.149 178.747 437.149C184.386 437.149 184.161 440.082 184.161 447.977C184.161 456.098 184.386 459.031 178.747 459.031C169.949 459.031 161.151 458.58 152.353 458.58H119.417C114.905 458.58 113.101 460.384 113.101 464.671V483.169C113.101 487.681 114.905 489.485 119.417 489.485H167.467C176.942 489.485 186.191 489.034 195.44 489.034C201.08 489.034 200.854 491.967 200.854 500.088C200.854 507.984 201.08 511.142 195.44 511.142C186.191 511.142 176.942 510.691 167.467 510.691H131.373C129.794 510.916 128.215 511.367 128.215 513.172C128.215 514.074 128.666 514.526 129.117 515.202C148.743 536.633 171.753 554.229 197.019 568.892C199.952 570.471 203.11 572.051 203.11 574.081C203.11 578.141 194.087 590.098 190.026 590.098C185.966 590.098 164.083 574.758 159.797 571.599C143.555 559.643 129.794 547.01 116.936 531.67C116.484 531.219 115.808 530.768 115.131 530.768C113.552 530.768 113.101 532.121 113.101 533.249V563.478C113.101 575.209 113.552 586.939 113.552 598.444C113.552 605.889 111.07 606.114 101.37 606.114C91.4441 606.114 88.9626 605.889 88.9626 598.219C88.9626 586.714 89.6394 575.209 89.6394 563.478ZM113.101 626.839C113.101 631.351 115.131 633.156 119.417 633.156H156.413C164.986 633.156 173.558 632.704 182.131 632.704C188.447 632.704 195.44 634.284 195.44 641.954C195.44 645.112 194.989 649.398 194.989 654.361V662.482C194.989 665.189 195.666 669.475 195.666 671.957C195.666 677.371 192.056 677.145 183.033 677.145C175.363 677.145 171.077 677.597 171.077 672.182C171.077 669.701 171.528 665.64 171.528 662.482V659.098C171.528 654.587 169.723 652.782 165.211 652.782H37.5285C33.2424 652.782 31.2121 654.587 31.2121 659.098V662.933C31.2121 666.092 31.8888 670.152 31.8888 672.634C31.8888 678.048 27.6026 677.597 19.7071 677.597C11.8115 677.597 7.75089 678.048 7.75089 672.634C7.75089 669.701 8.20206 665.866 8.20206 662.933V654.361C8.20206 648.496 7.97648 644.435 7.97648 642.179C7.97648 634.509 14.5185 632.93 20.835 632.93C29.6329 632.93 38.2053 633.156 46.7776 633.156H83.0973C87.6091 633.156 89.4138 631.351 89.4138 626.839V624.583C89.4138 620.523 88.9626 616.462 88.5115 612.402C88.5115 611.725 88.2859 610.822 88.2859 610.146C88.2859 607.439 90.3162 606.987 92.572 606.987C97.535 606.987 106.784 607.89 111.973 608.341C114.003 608.567 118.515 608.567 118.515 611.499C118.515 613.078 117.161 613.529 115.582 614.883C112.875 616.913 112.875 620.974 113.101 626.839ZM50.1615 780.239C49.2591 779.337 48.3568 778.66 47.0032 778.66C45.1985 778.66 44.2962 779.788 43.6194 780.916C39.5588 787.909 35.4982 794.677 30.7609 801.219C29.1818 803.249 27.3771 805.731 24.67 805.731C20.3838 805.731 6.84854 800.316 6.84854 795.128C6.84854 793.549 8.20206 791.744 9.33001 790.391C26.0235 768.734 35.7238 746.852 38.6565 719.33C38.8821 716.623 38.8821 713.465 42.4915 713.465C44.7473 713.465 55.35 715.721 58.057 716.172C64.5991 717.526 68.2085 718.202 68.2085 720.909C68.2085 722.263 66.6294 723.391 65.5015 723.842C62.1176 725.421 61.892 726.549 60.7641 732.414C60.0873 735.573 59.4106 740.084 57.6059 746.626C57.1547 748.206 56.9291 749.108 56.9291 750.687C56.9291 753.169 57.8315 754.748 59.185 756.778C66.1782 766.704 71.8179 772.118 83.3229 776.404C83.9997 776.404 84.6764 776.63 85.1276 776.63C88.0603 776.63 88.9626 774.374 89.1882 771.892V705.344C89.1882 700.832 87.3835 699.027 82.8717 699.027H66.1782C58.2826 699.027 50.1615 699.479 42.0403 699.479C36.4006 699.479 36.4006 696.546 36.4006 688.65C36.4006 680.98 36.175 677.822 42.0403 677.822C50.1615 677.822 58.057 678.273 66.1782 678.273H137.013C145.134 678.273 153.03 677.822 161.151 677.822C166.791 677.822 166.791 680.755 166.791 688.65C166.791 696.997 166.791 699.479 161.151 699.479C153.03 699.479 145.134 699.027 137.013 699.027H119.417C114.905 699.027 113.101 700.832 113.101 705.344V720.007C113.101 724.293 114.905 726.098 119.417 726.098H133.855C141.073 726.098 148.067 725.647 155.286 725.647C161.151 725.647 160.925 728.579 160.925 736.701C160.925 744.596 161.151 747.529 155.286 747.529C148.067 747.529 141.073 747.078 133.855 747.078H119.417C114.905 747.078 113.101 748.882 113.101 753.394V775.276C113.101 779.337 114.454 781.593 118.966 781.818C128.666 782.495 138.366 782.269 148.067 782.269C161.828 782.269 177.844 781.818 191.605 780.465C193.184 780.239 195.215 780.239 197.019 780.239C200.854 780.239 201.757 783.397 201.757 786.556C201.757 791.067 200.403 799.64 196.343 802.347C194.312 803.926 190.026 803.926 187.319 803.926C179.875 804.151 172.43 804.151 164.986 804.151H142.427C110.619 804.151 73.6226 806.182 50.1615 780.239Z" fill="white"/>
</svg>
