<svg width="452" height="107" viewBox="0 0 452 107" fill="none" xmlns="http://www.w3.org/2000/svg">
<path d="M17.9503 31.7225V76.7677C17.9503 78.7619 19.3579 80.0523 21.2348 80.0523H35.5461C37.3057 80.0523 38.8306 78.6446 38.8306 76.7677V16.7074C38.8306 13.6575 38.8306 10.3729 38.596 7.20567C38.4787 5.91531 38.3614 4.85957 38.3614 3.92112C38.3614 2.39615 39.4172 2.16154 40.7075 2.16154C42.1152 2.16154 46.4555 2.63077 48.0978 2.74807C55.9572 3.4519 58.3033 3.4519 58.3033 5.32879C58.3033 6.03262 57.8341 6.38454 57.1303 7.08837C56.0745 8.14411 56.0745 9.19986 56.0745 10.4902C55.9572 14.0094 55.9572 17.5285 55.9572 21.165V76.7677C55.9572 78.6446 57.4822 80.0523 59.2418 80.0523H73.4357C75.1953 80.0523 76.7203 78.6446 76.7203 76.7677V36.6493C76.7203 32.7782 76.7203 28.2033 76.3683 25.7399C76.251 25.2707 76.251 24.9188 76.251 24.5669C76.251 23.1592 77.3068 22.8073 78.4798 22.8073C79.8875 22.8073 87.747 23.6284 89.7411 23.863C93.7295 24.2149 95.6064 24.4496 95.6064 25.9745C95.6064 26.7957 95.1372 27.0303 94.4334 27.8514C93.3776 29.0245 93.3776 30.784 93.3776 32.1917C93.3776 35.359 93.3776 38.6435 93.3776 41.8107V83.1022C93.3776 88.9675 93.7295 94.8328 93.7295 100.698C93.7295 103.631 92.5565 103.983 88.6854 103.983H81.1779C77.5414 103.983 76.3683 103.748 76.3683 100.698V99.7596C76.3683 98.4692 75.4299 96.5923 72.4973 96.5923H22.1733C19.9445 96.5923 18.3022 97.5308 18.3022 99.9942C18.3022 103.631 17.3638 103.631 9.62161 103.631H5.98514C1.87946 103.631 0.589098 103.396 0.589098 100.346C0.589098 94.4808 0.941014 88.4983 0.941014 82.633V36.1801C0.941014 32.309 0.941014 27.9687 0.589098 25.2707C0.471793 24.9188 0.471793 24.5669 0.471793 24.2149C0.471793 22.69 1.52754 22.4554 2.8179 22.4554C4.22556 22.4554 12.3196 23.2765 14.3138 23.5111C18.1849 23.863 20.2964 23.863 20.2964 25.5053C20.2964 26.3264 19.7099 26.7957 19.006 27.3822C17.9503 28.5552 17.9503 30.1975 17.9503 31.7225ZM155.315 41.2242V25.7399C155.315 23.9803 153.907 22.4554 152.03 22.4554H138.54C136.663 22.4554 135.256 23.9803 135.256 25.7399V41.2242C135.256 42.9838 136.663 44.5088 138.54 44.5088H152.03C153.907 44.5088 155.315 43.1011 155.315 41.2242ZM155.315 79.2311V63.1603C155.315 61.2834 153.907 59.8758 152.03 59.8758H138.54C136.663 59.8758 135.256 61.2834 135.256 63.1603V79.2311C135.256 80.9907 136.663 82.5157 138.54 82.5157H152.03C153.907 82.5157 155.315 81.108 155.315 79.2311ZM172.793 63.1603V79.2311C172.793 80.9907 174.318 82.5157 176.078 82.5157H190.155C191.914 82.5157 193.439 80.9907 193.439 79.2311V63.1603C193.439 61.2834 191.914 59.8758 190.155 59.8758H176.078C174.201 59.8758 172.793 61.1661 172.793 63.1603ZM172.793 25.7399V41.2242C172.793 43.1011 174.201 44.5088 176.078 44.5088H190.155C191.914 44.5088 193.439 42.9838 193.439 41.2242V25.7399C193.439 23.9803 191.914 22.4554 190.155 22.4554H176.078C174.318 22.4554 172.793 23.9803 172.793 25.7399ZM190.741 98.5865H137.954C136.077 98.5865 135.608 100.111 135.608 101.754C135.608 104.334 133.965 104.569 130.563 104.569H122.939C118.95 104.569 117.543 104.334 117.543 101.285C117.543 95.4193 117.894 89.4367 117.894 83.5714V25.1534C117.894 20.9304 117.66 16.7074 117.66 12.4844C117.66 7.67489 119.654 5.91531 124.346 5.91531C128.335 5.91531 132.44 6.26723 136.429 6.26723H192.266C196.254 6.26723 200.125 5.91531 204.114 5.91531C208.923 5.91531 211.035 7.55759 211.035 12.4844C211.035 16.7074 210.683 20.9304 210.683 25.1534V83.5714C210.683 89.4367 211.035 95.302 211.035 101.167C211.035 104.217 209.862 104.569 205.873 104.569H201.65C193.791 104.569 193.087 104.452 193.087 100.933C193.087 99.525 192.031 98.7038 190.741 98.5865ZM290.099 74.5389V83.6887C290.099 90.0232 290.451 96.475 290.451 102.81C290.451 105.859 289.278 106.211 285.289 106.211H277.664C274.028 106.211 272.62 105.977 272.62 102.927C272.62 96.475 272.972 90.1405 272.972 83.6887V75.4774C272.972 74.6562 272.972 72.7794 271.916 72.7794C271.212 72.7794 270.626 73.6005 270.274 74.0697C263.94 81.8119 256.315 88.4983 247.986 94.0116C246.109 95.302 239.423 99.6423 237.663 99.6423C235.786 99.6423 233.323 96.7096 230.625 93.1905C229.686 92.0174 227.692 89.4367 227.692 87.9117C227.692 86.3868 229.686 85.5656 231.329 84.7445C241.886 79.2311 252.326 71.489 260.42 62.5738C260.89 61.9873 262.297 60.5796 262.297 59.7585C262.297 58.9373 261.828 58.82 260.186 58.82H247.869C242.825 58.82 237.663 59.0546 232.502 59.0546C229.686 59.0546 229.452 57.7643 229.452 54.3624V48.0279C229.452 44.5088 229.686 43.2184 232.502 43.2184C237.663 43.2184 242.825 43.453 247.869 43.453H269.688C271.447 43.453 272.972 42.0454 272.972 40.1685V33.834C272.972 31.9571 271.447 30.5494 269.688 30.5494H255.376C250.567 30.5494 245.875 30.784 241.065 30.784C238.132 30.784 237.898 29.4937 237.898 25.9745V19.7573C237.898 16.2382 238.132 14.9478 241.065 14.9478C245.875 14.9478 250.567 15.1824 255.376 15.1824H268.866C272.737 15.1824 272.972 13.3055 272.972 9.08256C272.972 7.55759 272.737 4.39034 272.62 2.86537C272.503 2.51346 272.503 2.04424 272.503 1.69232C272.503 0.0500463 273.676 0.0500463 274.966 0.0500463C277.899 0.0500463 286.814 0.284654 289.981 0.519269C291.037 0.636572 292.679 0.87118 292.679 2.27885C292.679 2.98268 292.093 3.3346 291.389 4.03843C290.099 5.21148 290.099 6.26723 290.099 11.546C290.099 14.244 291.741 15.1824 294.204 15.1824H307.812C312.621 15.1824 317.313 14.9478 322.123 14.9478C325.056 14.9478 325.29 16.2382 325.29 19.64V25.9745C325.29 29.611 325.056 30.784 322.006 30.784C317.196 30.784 312.504 30.5494 307.812 30.5494H293.383C291.624 30.5494 290.099 31.9571 290.099 33.834V40.1685C290.099 42.0454 291.624 43.453 293.383 43.453H315.202C320.246 43.453 325.408 43.2184 330.569 43.2184C333.384 43.2184 333.619 44.5088 333.619 47.9106V54.2451C333.619 57.7643 333.384 59.0546 330.569 59.0546C325.408 59.0546 320.246 58.82 315.202 58.82H303.12C301.829 58.82 300.656 58.82 300.656 59.7585C300.656 60.9315 309.102 68.0871 311.8 70.3159C317.9 75.4774 327.284 81.9292 334.323 85.6829C334.909 86.0349 335.848 86.5041 335.848 87.3252C335.848 89.9059 328.575 99.2904 325.994 99.2904C323.296 99.2904 309.337 88.9675 306.521 86.7387C301.477 82.633 296.785 77.8235 292.21 73.1313C291.858 72.7794 291.506 72.4274 291.037 72.4274C290.216 72.4274 290.099 73.1313 290.099 74.5389ZM389.925 80.5215V53.8932C389.925 52.1336 388.518 50.6086 386.641 50.6086H381.01C376.67 50.6086 372.33 50.9606 367.872 50.9606C364.822 50.9606 364.47 49.5529 364.47 45.9164V41.5761C364.47 39.9339 363.18 38.5262 361.538 38.5262H352.857C350.511 38.5262 348.282 38.2916 348.282 35.4763C348.282 33.3648 348.751 30.9013 348.751 28.7899V23.7457C348.751 19.7573 348.399 16.7074 348.399 15.5344C348.399 11.1941 353.561 11.1941 356.728 11.1941C361.42 11.1941 366.23 11.4287 370.922 11.4287H385.82C387.931 11.4287 389.925 10.6075 389.925 8.02681C389.925 6.73645 389.456 2.86537 389.456 2.51346C389.456 0.753876 390.747 0.636572 392.037 0.636572C395.439 0.636572 402.008 1.2231 405.527 1.57502C408.225 1.80962 410.102 1.92693 410.102 3.4519C410.102 4.15574 409.633 4.50765 408.929 5.21148C408.108 6.03262 407.873 7.20567 407.873 8.37872C407.873 9.90369 409.046 11.4287 411.51 11.4287H427.229C431.921 11.4287 436.73 11.1941 441.54 11.1941C444.59 11.1941 449.751 11.1941 449.751 15.5344C449.751 16.4728 449.517 20.4612 449.517 23.7457V28.3206C449.517 30.4321 449.869 33.2475 449.869 35.007C449.869 37.8224 447.64 38.057 445.294 38.057H436.613C434.853 38.057 433.563 39.3473 433.563 41.1069V46.9722C433.563 49.6702 432.977 50.9606 430.161 50.9606C425.704 50.9606 421.363 50.6086 417.023 50.6086H411.158C409.398 50.6086 407.873 52.1336 407.873 53.8932V56.2393C407.873 59.2892 409.281 60.4623 412.331 60.4623H414.208C418.665 60.4623 423.006 60.2277 427.346 60.2277C430.513 60.2277 430.748 61.6353 430.748 65.1545V71.1371C430.748 74.5389 430.513 76.0639 427.58 76.0639C423.123 76.0639 418.665 75.8293 414.208 75.8293H412.096C409.281 75.8293 407.873 77.1197 407.873 80.0523V83.5714C407.873 86.3868 409.515 87.5598 412.213 87.5598H419.017C428.519 87.5598 436.496 87.0906 445.88 86.1522C446.936 86.0349 448.109 85.9176 449.282 85.9176C451.745 85.9176 451.98 88.2637 451.98 90.2578C451.98 93.6597 451.159 100.463 448.344 102.575C446.584 103.865 444.472 103.865 439.663 103.865H418.431C400.248 103.865 384.764 103.513 374.558 93.8943C373.972 93.4251 373.268 92.7213 372.447 92.7213C371.509 92.7213 370.805 93.777 370.453 94.4808C369.162 96.8269 366.934 100.933 365.409 103.044C364.588 104.217 363.884 105.156 362.359 105.156C359.426 105.156 348.282 101.167 348.282 97.5308C348.282 96.475 349.103 95.302 349.69 94.4808C357.197 84.5099 362.007 70.9025 362.828 58.4681C362.945 56.7085 363.063 55.3009 365.174 55.3009C367.051 55.3009 374.676 56.8258 376.905 57.2951C381.479 58.3508 384.06 58.7027 384.06 60.345C384.06 61.1661 383.239 61.7527 382.653 61.9873C380.541 62.9257 380.424 63.5122 379.955 66.2103C379.837 67.0314 379.72 67.9698 379.368 69.3775C379.133 70.4332 379.016 71.2544 379.016 72.3101C379.016 75.3601 379.955 76.7677 381.831 78.8792C383.004 80.1696 386.876 83.4541 388.518 83.4541C389.691 83.4541 389.925 82.1638 389.925 80.5215ZM428.284 25.5053H369.397C367.051 25.5053 365.761 26.6784 365.761 28.5552C365.761 35.007 365.995 35.5936 376.318 35.5936H422.419C431.569 35.5936 431.921 34.8897 431.921 28.7899C431.921 26.7957 430.279 25.5053 428.284 25.5053Z" fill="white"/>
</svg>
